<?xml version="1.0" encoding="UTF-8"?>
<svg version="1.1" viewBox="0 0 2000 2000" width="1280" height="1280" xmlns="http://www.w3.org/2000/svg">
<path transform="translate(0)" d="m0 0h2e3v2e3h-2e3z" fill="#FCFCFD"/>
<path transform="translate(773,380)" d="m0 0h8l5 3 4 4 9 28 23 1 12 2h6l12-24 7-6 9-1 16 8 13 7 4 6v10l-12 24 1 4 13 13 10 14 1 2 12-3 16-5 9 1 6 5 6 16 4 13v7l-3 6-5 4-25 8h-3v22l-3 19 24 12 5 4 2 4v11l-13 25h133v-52l2-10 5-10 8-8 10-5 10-2h130l96 1 11 4 9 7 6 9 3 10 1 55 54-1-1-4-16-10-4-4-1-9 7-12 7-10 6-3 7 1 16 10 5 1 9-8 15-9-1-9-2-9v-10l5-6 22-5 9 1 5 6 4 18v5l15 1 17 4 12-18 4-4 7-1 10 5 12 8 4 5v8l-7 12-5 8 2 4 7 8 8 14v2l20-5h8l6 5 4 15 1 5v10l-4 5-9 3-14 3h-3l2 8v29l5 2 8 5 3 5v7l-5 9-8 12-2 2-1 39 5-2h8l7 4 7 8 8 9 6-2 14-6 12-3 2-27 3-5 6-5h28l9 3 5 6 1 3v14l-1 14 7 1 18 8 6 4 4-2 15-14 8-3 9 2 14 14 7 9 1 2v10l-4 6-15 14-1 4 5 11 5 16v3h16l11 1 6 3 4 6 1 3-1 28-4 8-7 4h-16l-12-1-3 10-9 19-1 5 10 10 7 9 1 3v7l-3 6-16 15-7 5h-11l-7-5-7-8-6-7-5 1-15 6-11 3h-3v24l-3 8-6 5-3 1-29-1-6-3-5-6-1-9v-21l-12-4v57h190l12 5 8 8 5 9 2 6v89l-6 12-6 7-8 5-11 3-185 1-1 270-4 9-7 8-10 5-5 1h-22l-1 6-7 11-8 8-14 7-9 2h-141v82l-4 10-7 9-12 8-4 1h-218v29h41l10 3 9 6 8 9 4 10 1 10-1 1h-512l-1-5 3-12 6-9 9-8 9-4 5-1h41v-139h-230l-1 6-7 8-23 23-7 4-9 1-9-3-8-7-16-16-5-6-19 9-15 6-15 4-1 30h77l11 4 8 6 6 8 4 8v89l-2 7-6 10-8 7-9 4-4 1h-231l-11-4-9-7-7-10-2-9v-86l3-8 5-8h2v-2l8-6 11-4h77l1-31-12-3-16-6-21-11-4 2-17 16-8 8-6 3-9 1-9-3-8-7-7-7-7-8-9-9-3-8v-8l3-8 28-28-2-6-8-16-7-21-1-7h-41l-8-4-6-7-2-5v-43l3-8 7-7 10-3 38 1 2-10 6-16 8-16 4-7-2-4-19-19-7-9-2-5v-9l3-8 21-21 8-7 6-4 4-1h8l10 5 15 15 7 8 3 3 5-1 16-8 5-1v-2l-3-1-7-8-13-14-9-11-2-4h-2l-8-11-12-16-7-10-11-17-15-25-12-23-8-16-10-23-14-38-9-31-7-30-48-1-2-1v-8l1-1h47l-3-16v-3h-45v-9l43-1-2-19-41-1v-9l40-1-1-19-39-1v-9h39v-43l3-37 4-29 7-34 2-9h-25l-15-3-12-5-11-7-11-11-8-13-5-14-1-5v-22l4-15 8-15 6-7h2l2-4 11-8 16-7 12-2v-26l4-17 6-14 8-12 9-10 10-9 14-8 12-5 11-3 7-1h21l15 3 16 6 16 10 10 9 10 13 16-4h20l14 4 12 7 11 10 9 14 4 12 1 5v16l14 3 16 8 9 7 7 7 7 11 5 12 2 7v5l220-1-10-11-7-11-11 3-16 5h-8l-6-4-4-6-8-26 1-8 6-7 28-9h2l-1-4v-13l3-24-16-8-11-6-4-6v-10l10-20 6-9 7-3 8 1 24 12 3 1 2-4 10-10 15-11 2-1-1-7-6-19v-10l4-6 4-3z" fill="#E1D7FD"/>
<path transform="translate(773,380)" d="m0 0h8l5 3 4 4 9 28 23 1 12 2h6l12-24 7-6 9-1 16 8 13 7 4 6v10l-12 24 1 4 13 13 10 14 1 2 12-3 16-5 9 1 6 5 6 16 4 13v7l-3 6-5 4-25 8h-3v22l-3 19 24 12 5 4 2 4v11l-13 25h133v-52l2-10 5-10 8-8 10-5 10-2h130l96 1 11 4 9 7 6 9 3 10 1 55 54-1-1-4-16-10-4-4-1-9 7-12 7-10 6-3 7 1 16 10 5 1 9-8 15-9-1-9-2-9v-10l5-6 22-5 9 1 5 6 4 18v5l15 1 17 4 12-18 4-4 7-1 10 5 12 8 4 5v8l-7 12-5 8 2 4 7 8 8 14v2l20-5h8l6 5 4 15 1 5v10l-4 5-9 3-14 3h-3l2 8v29l5 2 8 5 3 5v7l-5 9-8 12-2 2-1 39 5-2h8l7 4 7 8 8 9 6-2 14-6 12-3 2-27 3-5 6-5h28l9 3 5 6 1 3v14l-1 14 7 1 18 8 6 4 4-2 15-14 8-3 9 2 14 14 7 9 1 2v10l-4 6-15 14-1 4 5 11 5 16v3h16l11 1 6 3 4 6 1 3-1 28-4 8-7 4h-16l-12-1-3 10-9 19-1 5 10 10 7 9 1 3v7l-3 6-16 15-7 5h-11l-7-5-7-8-6-7-5 1-15 6-11 3h-3v24l-3 8-6 5-3 1-29-1-6-3-5-6-1-9v-21l-12-4v57h190l12 5 8 8 5 9 2 6v89l-6 12-6 7-8 5-11 3-185 1-1 270-4 9-7 8-10 5-5 1h-22l-1 6-7 11-8 8-14 7-9 2h-141v82l-4 10-7 9-12 8-4 1h-218v29h41l10 3 9 6 8 9 4 10 1 10-1 1h-512l-1-5 3-12 6-9 9-8 9-4 5-1h41v-139h-230l-1 6-7 8-23 23-7 4-9 1-9-3-8-7-16-16-5-6-19 9-15 6-15 4-1 30h77l11 4 8 6 6 8 4 8v89l-2 7-6 10-8 7-9 4-4 1h-231l-11-4-9-7-7-10-2-9v-86l3-8 5-8h2v-2l8-6 11-4h77l1-31-12-3-16-6-21-11-4 2-17 16-8 8-6 3-9 1-9-3-8-7-7-7-7-8-9-9-3-8v-8l3-8 28-28-2-6-8-16-7-21-1-7h-41l-8-4-6-7-2-5v-43l3-8 7-7 10-3 38 1 2-10 6-16 8-16 4-7-2-4-19-19-7-9-2-5v-9l3-8 21-21 8-7 6-4 4-1h8l10 5 15 15 7 8 3 3 5-1 16-8 16-6 13-3v-24l1-18 3-6 6-6v-64l-7-6-7-10-2-11v-79l3-12 6-9 7-6 1-272h15v266h226l13 4 9 7 6 8 3 8 1 5v81l-2 9-7 11-7 6-11 5-6 1h-225v299h923v-525l6-12 7-6 10-4h246v-133l-10-7-3-2-5 1-8 7-15 9 2 12 2 13-2 5-5 4-16 4-11 1-6-4-3-7-3-14v-5l-15-1-17-4-13 20-3 2h-10l-19-12-4-5v-8l7-12 5-8-2-4-6-7-8-13-1-4-20 5h-7l-5-3-3-4-4-18v-10l5-6 22-5h3v-10l1-2h-52v14l-4 11-6 8-8 6-9 4h-235l-10-4-10-9-6-12-1-4v-14l-204 1-5 2 9 30-2 9-5 5-11 4-15 5h-11l-6-4-4-9-6-19v-4h-26l-16-3-2 6-11 21-5 4-3 1h-8l-24-12-6-5-2-4v-10l12-24-1-4-6-5-9-11-8-11-1-2-11 3-16 5h-8l-6-4-4-6-8-26 1-8 6-7 28-9h2l-1-4v-13l3-24-16-8-11-6-4-6v-10l10-20 6-9 7-3 8 1 24 12 3 1 2-4 10-10 15-11 2-1-1-7-6-19v-10l4-6 4-3z" fill="#B89CFD"/>
<path transform="translate(391,701)" d="m0 0h15v266h226l13 4 9 7 6 8 3 8 1 5v81l-2 9-7 11-7 6-11 5-6 1h-225v299h923l1 52 4 10 6 7 12 6 259 1-1 6-7 11-8 8-14 7-9 2h-141v82l-4 10-7 9-12 8-4 1h-218v29h41l10 3 9 6 8 9 4 10 1 10-1 1h-512l-1-5 3-12 6-9 9-8 9-4 5-1h41v-139h-230l-1 6-7 8-23 23-7 4-9 1-9-3-8-7-16-16-5-6-19 9-15 6-15 4-1 30h77l11 4 8 6 6 8 4 8v89l-2 7-6 10-8 7-9 4-4 1h-231l-11-4-9-7-7-10-2-9v-86l3-8 5-8h2v-2l8-6 11-4h77l1-31-12-3-16-6-21-11-4 2-17 16-8 8-6 3-9 1-9-3-8-7-7-7-7-8-9-9-3-8v-8l3-8 28-28-2-6-8-16-7-21-1-7h-41l-8-4-6-7-2-5v-43l3-8 7-7 10-3 38 1 2-10 6-16 8-16 4-7-2-4-19-19-7-9-2-5v-9l3-8 21-21 8-7 6-4 4-1h8l10 5 15 15 7 8 3 3 5-1 16-8 16-6 13-3v-24l1-18 3-6 6-6v-64l-7-6-7-10-2-11v-79l3-12 6-9 7-6z" fill="#F61A93"/>
<path transform="translate(730,276)" d="m0 0h55l28 2 39 5 34 7 23 6 8 1 9 4 10 3v-5l2-2h26l3 2-1 5-1 1-23 1 34 13 24 11 16 8 21 11 26 16 15 10 19 14 13 10 2 1v2l4 2 14 12 13 12 6 5v2h2v2l4 2 5 5v2h2l7 8 7 7 9 11 6 7 29 1 8 2 9 6 6 9 2 6v34l-131 1-10 2-10 5-7 7-5 10-2 10-1 52h-133l2-6 10-19v-11l-3-5-23-12-5-3 3-19 1-22 30-10 4-5 1-3v-7l-9-27-4-5-5-2-10 1-22 7-3-1-8-12-11-12-6-6 1-5 11-22v-10l-4-6-28-14-9 1-6 5-12 24-1 1-11-1-7-1-23-1-3-8-7-21-5-5-3-1h-8l-26 8-5 4-2 4v10l7 22-1 5-13 9-12 11-4 5-5-1-22-11-8-1-8 4-12 23-2 4v10l3 5 22 12 6 3-3 24v17l-30 10-5 6-1 8 8 26 4 6 5 3h8l25-8 3 1 8 12 9 10v1h-221l-4-15-8-16-11-12-10-7-13-6-14-4-1-16-3-12-6-12-8-10-10-8-12-6-11-3h-20l-16 4-9-11-4-5-10-8-2-2 18-20 5-6 3-3h2l2-4 8-7 14-14 8-7h2v-2l9-7 17-14 14-10 13-9 17-11 15-9 22-12 16-8 17-8 24-10 25-9 26-8 42-10 30-5 25-3z" fill="#F1EDFD"/>
<path transform="translate(1659,1198)" d="m0 0h1v16l5 2 16 11 14 11 13 11 6 5 6 7 2 1v-14l5-2 2 2v24l4 2 11 13 10 13 10 15 8 13 13 24 11 26 8 25 7 29 4 28 1 12v43l-3 29-5 26-7 25-6 17-9 21-8 16-8 14-9 15-11 15-11 14-10 11-4 5h-2v2l-5 4-1 2h-2v2l-8 7-10 9-13 10-20 14-9 5-15 9-28 13-16 6-26 8-28 6-22 3-13 1h-43l-28-3-25-5-23-6-23-8-27-12-25-14-18-12-13-10-11-9-10-9-7-6-6-7-5-5-11-12-4-5v-2l30-1-1-10-4-10-9-10-12-6-5-1-41-1v-29l218-1 7-3 10-7 6-9 3-8 1-82 141-1 12-3 11-6 8-8 6-10 2-6 22-1 10-3 8-6 5-7 2-6z" fill="#F1EDFD"/>
<path transform="translate(773,380)" d="m0 0h8l5 3 4 4 9 28 23 1 12 2h6l12-24 7-6 9-1 16 8 13 7 4 6v10l-12 24 1 4 13 13 10 14 1 2 12-3 16-5 9 1 6 5 6 16 4 13v7l-3 6-5 4-25 8h-3v22l-3 19 24 12 5 4 2 4v11l-13 25h133v-52l2-10 5-10 8-8 10-5 10-2h130l96 1 11 4 9 7 6 9 3 10 1 55 54-1-1-4-16-10-4-4-1-9 7-12 7-10 6-3 7 1 16 10 5 1 9-8 15-9-1-9-2-9v-10l5-6 22-5 9 1 5 6 4 18v5l15 1 17 4 12-18 4-4 7-1 10 5 12 8 4 5v8l-7 12-5 8 2 4 7 8 8 14v2l20-5h8l6 5 4 15 1 5v10l-4 5-9 3-14 3h-3l2 8v29l5 2 8 5 3 5v7l-5 9-8 12-2 2-1 39 5-2h8l7 4 7 8 8 9 6-2 14-6 12-3 2-27 3-5 6-5h28l9 3 5 6 1 3v14l-1 14 7 1 18 8 6 4 4-2 15-14 8-3 9 2 14 14 7 9 1 2v10l-4 6-15 14-1 4 5 11 5 16v3h16l11 1 6 3 4 6 1 3-1 28-4 8-7 4h-16l-12-1-3 10-9 19-1 5 10 10 7 9 1 3v7l-3 6-16 15-7 5h-11l-7-5-7-8-6-7-5 1-15 6-11 3h-3v24l-3 8-6 5-3 1-29-1-6-3-5-6-1-9v-21l-12-4v-4l5 1 13 4-1 18v12l4 6 2 1 14 1h16l5-3 2-4 1-29 21-6 15-7h3l7 8 9 10 3 3 7 1 6-3 15-14h2l2-5v-7l-4-6-16-17 8-14 6-14 3-9h31l5-4 1-2 1-15v-15l-4-5-7-2-25-1-5-18-7-16-2-4 11-9 11-11 1-7-4-7-7-7-7-8-5-3-8 1-10 9-11 10-11-6-15-7-10-3-1-1v-30l-3-5-5-2-26-1-6 3-3 7-1 26-6 2-16 5-16 7-9-10-7-8-5-4h-8l-5 2 1 48 1 3-1 2-1 35h-15v-133l-10-7-3-2-5 1-8 7-15 9 2 12 2 13-2 5-5 4-16 4-11 1-6-4-3-7-3-14v-5l-15-1-17-4-13 20-3 2h-10l-19-12-4-5v-8l7-12 5-8-2-4-6-7-8-13-1-4-20 5h-7l-5-3-3-4-4-18v-10l5-6 22-5h3v-10l1-2h-52v14l-4 11-6 8-8 6-9 4h-235l-10-4-10-9-6-12-1-4v-14l-204 1-5 2 9 30-2 9-5 5-11 4-15 5h-11l-6-4-4-9-6-19v-4h-26l-16-3-2 6-11 21-5 4-3 1h-8l-24-12-6-5-2-4v-10l12-24-1-4-6-5-9-11-8-11-1-2-11 3-16 5h-8l-6-4-4-6-8-26 1-8 6-7 28-9h2l-1-4v-13l3-24-16-8-11-6-4-6v-10l10-20 6-9 7-3 8 1 24 12 3 1 2-4 10-10 15-11 2-1-1-7-6-19v-10l4-6 4-3z" fill="#5E2BD4"/>
<path transform="translate(268,646)" d="m0 0h89v55h34v272l-8 7-6 10-2 10v79l2 11 9 12 5 4v64l-5 5-3 4-1 3-2 42-22 7-5-2-7-8-13-14-9-11-2-4h-2l-8-11-12-16-7-10-11-17-15-25-12-23-8-16-10-23-14-38-9-31-7-30-48-1-2-1v-8l1-1h47l-3-16v-3h-45v-9l43-1-2-19-41-1v-9l40-1-1-19-39-1v-9h39v-43l3-37 4-29 7-34 2-9h56z" fill="#F1EDFD"/>
<path transform="translate(1022,864)" d="m0 0h275v305h-275z" fill="#B89CFD"/>
<path transform="translate(266,458)" d="m0 0h21l15 3 16 6 16 10 10 9 10 13 16-4h20l14 4 12 7 11 10 9 14 4 12 1 5v16l14 3 16 8 9 7 7 7 7 11 5 12 2 7v5h221l8 7-1 5-3 5h-225l-1 10-5 13-7 11-10 11-14 9-14 5-10 2h-83v-55h-89v55h-81l-15-3-12-5-11-7-11-11-8-13-5-14-1-5v-22l4-15 8-15 6-7h2l2-4 11-8 16-7 12-2v-26l4-17 6-14 8-12 9-10 10-9 14-8 12-5 11-3z" fill="#B99DFD"/>
<path transform="translate(818,1521)" d="m0 0h323l1 80 4 12 7 9 7 5 13 4 13 1v28h41l10 3 9 6 8 9 4 10 1 10-1 1h-512l-1-5 3-12 6-9 9-8 9-4 5-1h41z" fill="#E7048C"/>
<path transform="translate(773,380)" d="m0 0h8l5 3 4 4 9 28 23 1 12 2h6l12-24 7-6 9-1 16 8 13 7 4 6v10l-12 24 1 4 13 13 10 14 1 2 12-3 16-5 9 1 6 5 6 16 4 13v7l-3 6-5 4-25 8h-3v22l-3 19 24 12 5 4 2 4v11l-14 27-6 4h-10l-16-8-9-5-4 2-9 10-13 10-5 3h-2l9 30-2 9-5 5-11 4-15 5h-11l-6-4-4-9-6-19v-4h-26l-16-3-2 6-11 21-5 4-3 1h-8l-24-12-6-5-2-4v-10l12-24-1-4-6-5-9-11-8-11-1-2-11 3-16 5h-8l-6-4-4-6-8-26 1-8 6-7 28-9h2l-1-4v-13l3-24-16-8-11-6-4-6v-10l10-20 6-9 7-3 8 1 24 12 3 1 2-4 10-10 15-11 2-1-1-7-6-19v-10l4-6 4-3z" fill="#011364"/>
<path transform="translate(1347,920)" d="m0 0h294v129l-28 1-7 3-9 7-5 6-4 13-1 22h-240z" fill="#FCFCFD"/>
<path transform="translate(1176,1486)" d="m0 0h176l259 1-1 6-7 11-8 8-14 7-9 2h-141v82l-4 10-7 9-12 8-4 1-231 1-13-4-9-7-7-10-3-10v-83l4-13 8-10 10-6 6-2z" fill="#5E2BD5"/>
<path transform="translate(391,701)" d="m0 0h15v266h226l13 4 9 7 6 8 3 8 1 5v81l-2 9-7 11-7 6-11 5-6 1h-227l-11-4-9-7-8-11-2-11v-79l3-12 6-9 7-6z" fill="#5E2BD5"/>
<path transform="translate(390,1170)" d="m0 0h1v5l-4 5-2 6v41l-24 7-16 7-13 7h-3l-7-8-15-15-4-5-8-4h-9l-8 5-15 15-8 7-5 8v10l4 7 12 12 7 8 8 7-2 5-12 23-8 24-1 4h-43l-8 4-4 5-1 3v45l5 7 6 3 23 1h21l7 24 8 18 6 11-2 4-8 8-8 7-11 11-3 6v10l5 8 22 22v2l4 2 5 2h8l8-4 27-27 4 1 16 9 17 7 19 6-1 34h69v-33l26-8 16-7 12-7 18 18 7 8 8 6 3 1h7l7-3 16-15 12-12 3-7h4l-1 6-7 8-23 23-7 4-9 1-9-3-8-7-16-16-5-6-19 9-15 6-15 4-1 30h77l11 4 8 6 6 8 4 8v89l-2 7-6 10-8 7-9 4-4 1h-231l-11-4-9-7-7-10-2-9v-86l3-8 5-8h2v-2l8-6 11-4h77l1-31-12-3-16-6-21-11-4 2-17 16-8 8-6 3-9 1-9-3-8-7-7-7-7-8-9-9-3-8v-8l3-8 28-28-2-6-8-16-7-21-1-7h-41l-8-4-6-7-2-5v-43l3-8 7-7 10-3 38 1 2-10 6-16 8-16 4-7-2-4-19-19-7-9-2-5v-9l3-8 21-21 8-7 6-4 4-1h8l10 5 15 15 7 8 3 3 5-1 16-8 16-6 13-3v-24l1-18 3-6 5-5z" fill="#5E2BD5"/>
<path transform="translate(1498,526)" d="m0 0 9 1 5 6 4 18v5l15 1 17 4 12-18 4-4 7-1 10 5 12 8 4 5v8l-7 12-5 8 2 4 7 8 8 14v2l20-5h8l6 5 4 15 1 5v10l-4 5-9 3-14 3h-3l2 8v29l5 2 8 5 3 5v7l-5 9-8 12-2 2-1 39 5-2h8l7 4 7 8 8 9 6-2 14-6 12-3 2-27 3-5 6-5h28l9 3 5 6 1 3v14l-1 14 7 1 18 8 6 4 4-2 15-14 8-3 9 2 14 14 7 9 1 2v10l-4 6-15 14-1 4 5 11 5 16v3h16l11 1 6 3 4 6 1 3-1 28-4 8-7 4h-16l-12-1-3 10-9 19-1 5 10 10 7 9 1 3v7l-3 6-16 15-7 5h-11l-7-5-7-8-6-7-5 1-15 6-11 3h-3v24l-3 8-6 5-3 1-29-1-6-3-5-6-1-9v-21l-12-4v-4l5 1 13 4-1 18v12l4 6 2 1 14 1h16l5-3 2-4 1-29 21-6 15-7h3l7 8 9 10 3 3 7 1 6-3 15-14h2l2-5v-7l-4-6-16-17 8-14 6-14 3-9h31l5-4 1-2 1-15v-15l-4-5-7-2-25-1-5-18-7-16-2-4 11-9 11-11 1-7-4-7-7-7-7-8-5-3-8 1-10 9-11 10-11-6-15-7-10-3-1-1v-30l-3-5-5-2-26-1-6 3-3 7-1 26-6 2-16 5-16 7-9-10-7-8-5-4h-8l-5 2 1 48 1 3-1 2-1 35h-15v-133l-10-7-3-2-5 1-8 7-15 9 2 12 2 13-2 5-5 4-16 4-11 1-6-4-3-7-3-14v-5l-15-1-17-4-13 20-3 2h-10l-19-12-4-5v-8l7-12 5-8-2-4-6-7-8-13-1-4-20 5h-7l-5-3-3-4-4-18v-10l5-6 22-5h3v-13l4-16-1-4-16-10-4-4-1-9 7-12 7-10 6-3 7 1 16 10 5 1 9-8 15-9-1-9-2-9v-10l5-6z" fill="#011365"/>
<path transform="translate(390,1175)" d="m0 0h1v123l-16 7-11 6-13 11-10 12-7 12-6 16-3 18v14l3 17 5 14 7 13 7 9 5 6 14 11 16 8 9 4 3 14 5 10 9 10 10 6 9 3 5 1 152 1-1 5-7 8-16 16-10 8-4 1h-7l-8-4-10-10-7-8-11-11-12 7-19 8-21 6h-2l1 3-1 30h-69v-30l1-4-16-4-16-6-17-9-4-3-4 1-26 26-8 4h-8l-6-3-28-28-3-6v-10l4-7 17-17 8-7 3-3-2-5-11-23-6-20-1-7-3 1h-18l-23-1-7-4-5-7v-45l4-7 5-4 5-2h32l11 1 1-7 7-21 12-23 3-5-4-2-11-11-7-8-7-7-3-6v-10l6-9 17-16 8-8 6-3h9l8 4 14 15 12 12v2l16-8 16-7 23-7v-40l3-8z" fill="#FCFBFD"/>
<path transform="translate(1641,1048)" d="m0 0 208 1 12 5 8 8 5 9 2 6v89l-6 12-6 7-8 5-11 3h-228l-12-4-9-7-7-11-2-6v-86l4-13 9-10 7-5 6-2z" fill="#5E2BD5"/>
<path transform="translate(1695,745)" d="m0 0 26 1 6 3 3 5v30l15 5 17 9 4 2 17-16 7-4 7 1 8 7 11 12 3 6-1 7-15 15-7 6 7 14 5 16 1 7h25l7 2 5 6v15l-1 15-5 6-2 1h-22l-9-1-2 9-7 16-7 12 9 9 7 8 4 6v7l-3 5-8 7-10 9-5 2-7-1-11-11-7-8-1-3-21 9-17 5-1 28-4 6-4 2h-16l-14-1-5-4-2-4v-12l1-17-16-6-1-1v-53l4 2 10 7 13 5 10 2h13l14-3 16-8 10-9 7-10 5-11 3-14v-12l-3-14-4-10-7-10-9-9-10-6-13-5-5-1h-21l-14 4-11 6-12 11-7 11-3 7-10-2-22-1v-35l1-4-1-1v-48l5-3h8l8 7 12 13 2 2 17-8 19-5 1-26 3-7 4-3z" fill="#FBFBFD"/>
<path transform="translate(1052,480)" d="m0 0h168l8 2 9 6 6 9 2 6v34l-131 1-10 2-10 5-7 7-5 10-2 10-1 52h-133l2-6 10-19v-11l-3-5-23-12-5-3 3-19 1-22 6-2 40-1 19-14 12-9 15-11 8-5 7-3z" fill="#FDC64A"/>
<path transform="translate(863,1021)" d="m0 0 6 2 3 3 6 14v2l7-1h13l6 1 3-9 5-10 4-2 8 1 14 6 3 3 1 7-6 15 2 4 8 7 6 7 9-3 7-3h6l5 3 7 17v6l-2 4-18 8v26l5 1 12 5 3 4 1 5-7 18-5 4-9-1-13-5-11 12-5 4 1 5 5 12-1 8-3 3-18 7-6-1-4-5-6-13v-2l-6 1h-15l-5-1-3 10-4 8-4 3-9-1-14-6-3-4v-8l5-12-1-4-11-10-5-5-14 6h-8l-4-4-7-16v-6l4-5 14-6h3l-1-4v-21l-18-9-2-3v-8l7-16 4-3 9 1 14 6 2-4 7-8 6-5-1-6-5-13 2-7 10-5z" fill="#B99DFD"/>
<path transform="translate(777,1660)" d="m0 0h450l10 3 9 6 8 9 4 10 1 10-1 1h-512l-1-5 3-12 6-9 9-8 9-4z" fill="#F71B94"/>
<path transform="translate(268,646)" d="m0 0h89v107h27l-2 4-10 9-7 7-8 7-8 8-8 7-8 8-8 7-7 7-6 4-7-7-8-7-8-8-8-7-7-7-8-7-9-9-8-7-8-8v-1h27z" fill="#FEC74A"/>
<path transform="translate(799,471)" d="m0 0h20l15 4 13 7 11 9 10 14 6 15 2 10v14l-3 14-5 12-7 10-6 7-11 8-12 6-13 3h-21l-17-5-10-6-11-9-9-12-5-11-3-10-1-7v-13l3-14 5-12 8-11 10-10 14-8 12-4z" fill="#F1ECFD"/>
<path transform="translate(1022,864)" d="m0 0h275v305h-275zm4 38v264h266v-264z" fill="#5F2CD6"/>
<path transform="translate(1472,955)" d="m0 0 5 4 9 11 14 17 12 14 9 11 7 8 5-5 12-14 4-5h2l9 11 12 14 9 11 11 13 8 10-2 4-7 8h-212l4-6 12-14 9-11 12-14 9-11 11-13 9-11 11-13 9-11z" fill="#FEC74A"/>
<path transform="translate(1347,1340)" d="m0 0h139v82h-139z" fill="#FCFBFD"/>
<path transform="translate(771,939)" d="m0 0h16l2 2v16l7 1 11 5 9-9 5-1 8 7 3 3v6l-9 9 6 14v4h16l2 2v16l-1 2-3 1h-14l-1 8-4 8 1 4 8 8-1 6-8 8-6 1-9-9-4 1-13 5h-2l1 13-2 4-2 1h-14l-3-3v-15l-10-2-7-4-4 2-7 7h-6l-9-9-1-4 4-6 6-6-5-10-1-7h-16l-2-2-1-15 3-4h15l3-11 3-5-1-4-8-8v-5l10-10h5l9 9 6-2 10-4h2v-15z" fill="#E2D8FD"/>
<path transform="translate(1698,830)" d="m0 0h9l15 3 14 7 12 11 7 11 5 13 1 6v16l-3 12-6 12-11 12-8 6-10 5-12 3h-17l-12-3-13-7-10-9-1-41-4-10-6-6 1-7 7-11 8-9 14-9 13-4z" fill="#FCFBFD"/>
<path transform="translate(1511,599)" d="m0 0h9l10 2 12 5 9 7 7 7 8 16 2 8v16l-4 13-6 11-10 10-12 7-10 3-12 1-13-2-12-5-10-8-8-9-6-13-2-9v-14l4-14 7-12 9-9 12-7z" fill="#E0D6FD"/>
<path transform="translate(389,1302)" d="m0 0 2 1v169l-14-5-14-9-10-9-8-9-8-13-6-15-3-16v-19l4-18 5-12 7-12 11-12 10-9 14-8z" fill="#FCFBFD"/>
<path transform="translate(797,525)" d="m0 0h78l1 5v14l-3 14-5 12-7 10-6 7-11 8-12 6-13 3h-21l-11-3-1-1v-65l3-5 5-4z" fill="#FDC64A"/>
<path transform="translate(1403,1487)" d="m0 0h208l-1 6-7 11-8 8-14 7-9 2h-141l-3-12-6-10-7-6-8-4z" fill="#F61A93"/>
<path transform="translate(887,1075)" d="m0 0h9l12 3 11 7 6 7 6 12 1 4v17l-5 12-7 9-10 7-12 4h-12l-13-4-11-8-7-10-3-7-1-5v-14l3-10 7-11 9-7 12-5z" fill="#E2D8FD"/>
<path transform="translate(1598,731)" d="m0 0 6 2h9v38l5-2h8l7 4 7 8 8 9 6-2 14-6 12-3 2-27 3-5 6-5h28l9 3 5 6 1 3v14l-1 14 7 1 18 8 6 4 4-2 15-14 8-3 9 2 14 14 7 9 1 2v10l-4 6-15 14-1 4 5 11 5 16v3h16l11 1 6 3 4 6 1 3-1 28-4 8-7 4h-16l-12-1-3 10-9 19-1 5 10 10 7 9 1 3v7l-3 6-16 15-7 5h-11l-7-5-7-8-6-7-5 1-15 6-11 3h-3v24l-3 8-6 5-3 1-29-1-6-3-5-6-1-9v-21l-12-4v-4l5 1 13 4-1 18v12l4 6 2 1 14 1h16l5-3 2-4 1-29 21-6 15-7h3l7 8 9 10 3 3 7 1 6-3 15-14h2l2-5v-7l-4-6-16-17 8-14 6-14 3-9h31l5-4 1-2 1-15v-15l-4-5-7-2-25-1-5-18-7-16-2-4 11-9 11-11 1-7-4-7-7-7-7-8-5-3-8 1-10 9-11 10-11-6-15-7-10-3-1-1v-30l-3-5-5-2-26-1-6 3-3 7-1 26-6 2-16 5-16 7-9-10-7-8-5-4h-8l-5 2 1 48 1 3-1 2-1 35h-15z" fill="#0A156F"/>
<path transform="translate(721,1094)" d="m0 0h35v143h-35z" fill="#5E2BD5"/>
<path transform="translate(391,701)" d="m0 0h15v266l-15 5z" fill="#F61A93"/>
<path transform="translate(502,623)" d="m0 0h220l8 7-1 5-2 4h-226v-15z" fill="#F61A93"/>
<path transform="translate(666,1145)" d="m0 0h36v92h-36z" fill="#F71B94"/>
<path transform="translate(477,778)" d="m0 0h349v9h-349z" fill="#B99DFD"/>
<path transform="translate(390,1170)" d="m0 0h1v5l-4 5-2 6v41l-24 7-16 7-13 7h-3l-7-8-15-15-4-5-8-4h-9l-8 5-15 15-8 7-5 8v10l4 7 12 12 7 8 8 7-2 5-12 23-8 24-1 4h-43l-8 4-4 5-1 3v45l5 7 6 3 23 1h21l7 24 8 18 6 11-2 4-8 8-8 7-11 11-3 6v10l5 8 22 22v2l4 2 5 2h8l8-4 27-27 4 1 16 9 17 7 19 6-1 34h-3v-31l-12-3-16-6-21-11-4 2-17 16-8 8-6 3-9 1-9-3-8-7-7-7-7-8-9-9-3-8v-8l3-8 28-28-2-6-8-16-7-21-1-7h-41l-8-4-6-7-2-5v-43l3-8 7-7 10-3 38 1 2-10 6-16 8-16 4-7-2-4-19-19-7-9-2-5v-9l3-8 21-21 8-7 6-4 4-1h8l10 5 15 15 7 8 3 3 5-1 16-8 16-6 13-3v-24l1-18 3-6 5-5z" fill="#0A156F"/>
<path transform="translate(1405,1353)" d="m0 0 4 2 13 15 9 11 3 2 2-4 6-7h2l9 11 12 14 5 6v3h-108l3-5 12-14 9-11 11-13z" fill="#FEC74A"/>
<path transform="translate(1511,599)" d="m0 0h9l10 2 12 5 9 7 7 7 8 16v4l-101-1 3-10 6-10 9-9 12-7z" fill="#F61A93"/>
<path transform="translate(902,616)" d="m0 0 5 2 19 10 3 1h10l5-3 1-2h134v15h-201l5-5 11-9z" fill="#F61A93"/>
<path transform="translate(477,841)" d="m0 0h309v9h-308l-1-1z" fill="#B99DFD"/>
<path transform="translate(478,872)" d="m0 0h279l1 1v8h-281v-8z" fill="#B99DFD"/>
<path transform="translate(611,1170)" d="m0 0h35v67h-36v-39h-9v-4h9v-23z" fill="#FDC64A"/>
<path transform="translate(995,1345)" d="m0 0h301v8h-301z" fill="#011364"/>
<path transform="translate(776,979)" d="m0 0h8l8 3 6 4 6 7 3 8v11l-4 10-6 7-10 5h-15l-10-5-7-8-3-8v-13l5-10 7-7 7-3z" fill="#E2D8FD"/>
<path transform="translate(1009,276)" d="m0 0h13l10 5 6 7 2 5v4h20l3 3-1 4-21 1-4 10-5 6-7 4-4 1h-11l-8-3-6-5-5-9-1-4-6-2v-5l7-1 1-7 6-8 8-5z" fill="#B99DFD"/>
<path transform="translate(1032,1314)" d="m0 0h264v8h-264z" fill="#011364"/>
<path transform="translate(1232,1518)" d="m0 0h18l9 3 9 6 2 4-8 7h-4l-8-5-10-1-9 3-5 4-4 7v14l5 8 5 4 6 2h11l7-4 3-3 4 2 7 7-6 7-8 4-9 2h-10l-8-2-12-6-8-9-4-11v-17l4-10 7-8 8-5z" fill="#F8F6FD"/>
<path transform="translate(477,909)" d="m0 0h231v9h-230l-1-1z" fill="#B99DFD"/>
<path transform="translate(718,809)" d="m0 0h229v9h-229z" fill="#FEC74A"/>
<path transform="translate(1046,1251)" d="m0 0h250v8h-250z" fill="#011364"/>
<path transform="translate(727,909)" d="m0 0h220v9h-220z" fill="#FEC74A"/>
<path transform="translate(1598,731)" d="m0 0 6 2h9l1 91 1 3-1 2-1 35h-15z" fill="#F61A94"/>
<path transform="translate(478,809)" d="m0 0h216l1 1v8h-218v-8z" fill="#B99DFD"/>
<path transform="translate(1079,1282)" d="m0 0h216l1 1v7l-1 1h-216z" fill="#15187D"/>
<path transform="translate(160,1322)" d="m0 0 5 1 10 4 6 5 4 7 1 4v10l-3 8-5 6-7 4-6 1v14l-5 1-1-1v-14l-6-1-9-6-5-8-1-3v-12l5-10 8-6z" fill="#B99DFD"/>
<path transform="translate(417,1622)" d="m0 0h10l10 16 8 13 1 1 18-30h10v51h-11l-1-27-13 22h-6l-10-15-3-5-1 25h-12z" fill="#F7F5FD"/>
<path transform="translate(1085,1220)" d="m0 0h211v8h-211z" fill="#011364"/>
<path transform="translate(1404,886)" d="m0 0h152l3 2 1 4-2 4-153 1-3-1-1-2v-6z" fill="#0A156F"/>
<path transform="translate(776,872)" d="m0 0h171v9h-171z" fill="#FEC74A"/>
<path transform="translate(1719,1369)" d="m0 0h9l10 5 5 6 3 8-1 10-3 6-7 7-7 2h-11l-10-6-4-6-2-7 1-10 5-8 6-5z" fill="#F0EBFD"/>
<path transform="translate(314,1622)" d="m0 0h12l1 1v19h22v-20h12v51h-12v-20h-22v20h-13z" fill="#F4F1FD"/>
<path transform="translate(1695,1093)" d="m0 0h12l6 13 4 10 7 15 6 14h-13l-5-10-23-1-3 9-1 2h-13l4-10 7-15 5-12 6-13z" fill="#F8F6FD"/>
<path transform="translate(1800,1093)" d="m0 0h11l5 9 3 7 8 18 7 16v2h-13l-4-10h-23l-4 10h-13l3-9 7-15 5-10 3-8z" fill="#F8F6FD"/>
<path transform="translate(1511,599)" d="m0 0h9l10 2 12 5 9 7 7 7 1 3h-87l3-5 8-8 12-7z" fill="#FBFAFD"/>
<path transform="translate(537,1009)" d="m0 0h18l9 4-1 5-2 5-11-3h-11l-2 2-1 6 11 3 12 4 6 5 2 5-1 9-7 8-9 3h-13l-11-3-4-3 1-5 2-5 6 2 4 2h15l3-2-1-5-10-4-9-2-6-4-4-5-1-7 3-8 6-5z" fill="#F6F4FD"/>
<path transform="translate(1230,558)" d="m0 0h14l-1 6-5 15-3 8-4 10-4 13-5 14-5 13-4 13-2 3h-13l1-7 9-26 3-7 5-16 3-8 4-10 4-13z" fill="#F8F6FD"/>
<path transform="translate(1047,1140)" d="m0 0h187v6l-1 1h-186z" fill="#F8F7FD"/>
<path transform="translate(1047,1117)" d="m0 0h186l1 1v6h-187z" fill="#F8F7FD"/>
<path transform="translate(1047,1095)" d="m0 0h187v6l-1 1h-186z" fill="#F8F7FD"/>
<path transform="translate(1047,966)" d="m0 0h187v6l-1 1h-186z" fill="#F8F7FD"/>
<path transform="translate(1047,921)" d="m0 0h187v6l-1 1h-186z" fill="#F8F7FD"/>
<path transform="translate(1048,943)" d="m0 0h185l1 1v6h-187v-6z" fill="#F8F7FD"/>
<path transform="translate(804,841)" d="m0 0h143v9h-143z" fill="#FEC74A"/>
<path transform="translate(770,937)" d="m0 0h18l3 4v14l9 2 7 3 8-8 7-1 8 7 5 6-1 6-8 8 2 6 3 10 12-1 5 3 2 4v13l-2 4-4 2h-13l-2 9-2 4v5h2l6 7v7l-10 10-7 1-8-7-3-2-11 5h-3v14l-5 5h-16l-4-3-1-3-1-12-13-5-4 2-8 7-6-1-10-10-1-6 8-10 1-2-4-8-1-6h-14l-4-3-1-3v-14l5-5h14l1-7 3-6-1-5-7-7v-7l11-11h7l8 8 5-1 10-4 1-13zm1 2-3 3v15l-10 3-6 3-4-2-7-7h-5l-10 10v5l9 9-1 4-5 13v2h-15l-3 4 1 15 2 2h16l1 7 5 10-8 8-2 6 7 8 3 3h6l9-9 5 2 11 4h3v15l3 3h14l3-2 1-6-1-10 11-3 5-3 4 1 8 8 6-1 8-8 1-6-9-9 1-5 4-9v-5h14l3-1 1-2v-16l-2-2h-16l-1-7-5-11 9-9v-6l-9-9-5-1-8 7-3 3-11-5-7-1v-16l-2-2z" fill="#B99DFD"/>
<path transform="translate(1725,1093)" d="m0 0h13l14 32v4l2-1 10-24 5-10h11l-1 6-5 12-8 18-5 11-2 4h-12l-5-10-13-30-3-7z" fill="#F7F4FD"/>
<path transform="translate(1692,827)" d="m0 0h21l11 3 14 7 10 9 7 8 6 12 3 10 1 7v12l-4 16-7 14-10 11-10 7-14 6-11 2h-13l-16-4-12-6-9-8v-5l7 6 14 8 9 3 5 1h17l12-3 12-6 12-11 7-10 5-14 1-5v-16l-3-12-7-14-10-11-13-8-13-4-7-1h-9l-14 3-9 4-11 7-8 9-6 10-2 5-4-2 7-14 11-12 10-7 12-5z" fill="#0A156F"/>
<path transform="translate(801,747)" d="m0 0h146v8h-146z" fill="#B99DFD"/>
<path transform="translate(641,747)" d="m0 0h142v8h-142z" fill="#FEC74A"/>
<path transform="translate(477,747)" d="m0 0h142v8h-142z" fill="#B99DFD"/>
<path transform="translate(1530,1627)" d="m0 0h125v9h-125l-1-1v-7z" fill="#16187D"/>
<path transform="translate(482,1009)" d="m0 0h31l1 1v39l-3 9-6 5-5 2h-11l-8-3-4-4 1-4 4-5 8 4h9l1-3 1-30h-19z" fill="#F5F2FD"/>
<path transform="translate(1192,583)" d="m0 0h3v13l-10 3-12 5-6 2h-4v2l9 3 10 3 10 4 3 1v13l-10-3-29-11-9-4v-14l19-7 17-6z" fill="#F7F4FD"/>
<path transform="translate(1502,1359)" d="m0 0h139v8h-139z" fill="#855FFE"/>
<path transform="translate(1502,1343)" d="m0 0h139v8h-139z" fill="#855FFE"/>
<path transform="translate(1347,1305)" d="m0 0h139v8h-139z" fill="#855FFE"/>
<path transform="translate(1347,1273)" d="m0 0h139v8h-139z" fill="#855FFE"/>
<path transform="translate(1502,1257)" d="m0 0h139v8h-139z" fill="#855FFE"/>
<path transform="translate(1347,1257)" d="m0 0h139v8h-139z" fill="#855FFE"/>
<path transform="translate(1502,1240)" d="m0 0h139v8h-139z" fill="#855FFE"/>
<path transform="translate(1347,1240)" d="m0 0h139v8h-139z" fill="#855FFE"/>
<path transform="translate(1347,1131)" d="m0 0h139v8h-139z" fill="#855FFE"/>
<path transform="translate(1246,583)" d="m0 0 10 3 19 7 13 5 6 2v14l-12 5-13 5-21 8h-2v-13l19-7 12-4 1-2-10-2-9-4-7-2-6-2z" fill="#F7F5FD"/>
<path transform="translate(611,1297)" d="m0 0h119v9h-119z" fill="#0B1570"/>
<path transform="translate(1354,1530)" d="m0 0h12l1 1v16h16v13h-16v15l-1 1h-12l-1-1v-15h-16v-13h16v-16z" fill="#F4F1FD"/>
<path transform="translate(1639,1093)" d="m0 0h29l1 1v36l-3 9-5 5-4 2h-13l-8-4-3-4 2-3h2l2-4 4 2 3 2h7l2-3 1-28h-17l-1-1v-9z" fill="#F3EFFD"/>
<path transform="translate(964,495)" d="m0 0h52l-5 5-11 8-16 12-7 5h-37l3-2 18-6 4-5 1-3v-7z" fill="#F0EBFD"/>
<path transform="translate(1295,1530)" d="m0 0h12l1 16 17 1v12h-18v17h-12l-1-1v-15h-16v-13h16v-16z" fill="#F6F4FD"/>
<path transform="translate(227,853)" d="m0 0h126v8h-126z" fill="#011364"/>
<path transform="translate(1347,1179)" d="m0 0h123v8h-123z" fill="#855FFE"/>
<path transform="translate(157,883)" d="m0 0h108l1 1v7l-1 1h-108z" fill="#16187D"/>
<path transform="translate(1347,1289)" d="m0 0h139v7h-139z" fill="#855FFE"/>
<path transform="translate(1347,1148)" d="m0 0h139v7h-139z" fill="#855FFE"/>
<path transform="translate(390,1175)" d="m0 0h1v88l-6-4-12-11-7-6v-2l-3-1v-2l-5-2 3-2 23-7v-40l3-8z" fill="#EEE9FD"/>
<path transform="translate(1047,1072)" d="m0 0h136v7h-136z" fill="#F8F7FD"/>
<path transform="translate(1047,988)" d="m0 0h136v7h-136z" fill="#F8F7FD"/>
<path transform="translate(983,744)" d="m0 0 4 1v186l-4 1-1-1v-186z" fill="#F71B94"/>
<path transform="translate(367,1622)" d="m0 0h44v10h-16v41h-12v-41h-16z" fill="#F8F6FD"/>
<path transform="translate(846,778)" d="m0 0h101v9h-101z" fill="#FEC74A"/>
<path transform="translate(389,1298)" d="m0 0h2v4l-18 8-13 9-12 12-9 14-5 11-4 15-1 6v19l3 16 6 15 6 10 8 10 8 8 15 10 15 6 1 5-14-5-11-6-10-8-7-6-8-10-8-14-5-12-3-13-1-8v-14l3-18 6-16 8-13 9-11 10-9 11-7 15-7z" fill="#09156E"/>
<path transform="translate(611,1345)" d="m0 0h110v8h-110z" fill="#011365"/>
<path transform="translate(696,1273)" d="m0 0h110v8h-110z" fill="#011365"/>
<path transform="translate(1009,279)" d="m0 0h13l8 5 6 7 1 6-4 2v4l4 1-1 7-8 9-7 3h-11l-8-4-7-8-1-7h8l5 7 4 2h9l6-4 2-5v-7l-4-6-7-3-9 2-4 5-1 2h-9l1-6 7-8z" fill="#F9F8FD"/>
<path transform="translate(1460,1658)" d="m0 0h108v8h-108z" fill="#011364"/>
<path transform="translate(486,1622)" d="m0 0h12v41h25v10h-37z" fill="#F8F7FD"/>
<path transform="translate(1502,1289)" d="m0 0h123v7h-123z" fill="#855FFE"/>
<path transform="translate(1502,1391)" d="m0 0h107v8h-107z" fill="#855FFE"/>
<path transform="translate(1370,623)" d="m0 0h54l-3 15-1 1h-50z" fill="#F61A93"/>
<path transform="translate(611,1322)" d="m0 0h98v8h-98z" fill="#011364"/>
<path transform="translate(1460,1716)" d="m0 0h97v8h-97z" fill="#011364"/>
<path transform="translate(157,942)" d="m0 0h97v8h-97z" fill="#011364"/>
<path transform="translate(1502,1179)" d="m0 0h93l4 5 3 3h-100z" fill="#855FFE"/>
<path transform="translate(1460,1687)" d="m0 0h84v9h-84z" fill="#15187D"/>
<path transform="translate(584,1521)" d="m0 0h4l-1 6-7 8-23 23-7 4-9 1-9-3-8-7-16-16-5-6-19 9-15 6-15 4-1 29h-3l-1-32 26-8 16-7 12-7 18 18 7 8 8 6 3 1h7l7-3 16-15 12-12z" fill="#08156D"/>
<path transform="translate(970,1220)" d="m0 0h91v8h-91z" fill="#011364"/>
<path transform="translate(1539,1408)" d="m0 0h102v7h-102z" fill="#855FFE"/>
<path transform="translate(1552,1196)" d="m0 0h89v8h-89z" fill="#855FFE"/>
<path transform="translate(1553,1375)" d="m0 0h88v8h-88z" fill="#855FFE"/>
<path transform="translate(1502,1273)" d="m0 0h88v8h-88z" fill="#855FFE"/>
<path transform="translate(1579,1687)" d="m0 0h76v9h-76z" fill="#15187D"/>
<path transform="translate(1502,1131)" d="m0 0h85v9l-85-1z" fill="#855FFE"/>
<path transform="translate(157,913)" d="m0 0h84v8h-84z" fill="#011364"/>
<path transform="translate(1577,1716)" d="m0 0h78v8h-78z" fill="#021365"/>
<path transform="translate(275,942)" d="m0 0h78v8h-78z" fill="#011364"/>
<path transform="translate(1725,1370)" d="m0 0 4 2 1 7 5 4 2 4v8l-3 5-5 4-9 1-6-4-3-3-1-3v-7l3-6 6-4h4v-7z" fill="#B99DFD"/>
<path transform="translate(1718,1366)" d="m0 0h11l9 4 5 4 5 9 1 4v9l-4 10-9 8-7 2v21l-4 2-2-1v-21l-10-2-8-6-4-5-3-8v-9l4-10 8-8zm1 3-9 4-6 7-3 9 1 9 3 6 5 5 7 4h13l6-3 7-7 3-9-1-10-5-8-5-4-7-3z" fill="#B99DFD"/>
<path transform="translate(1347,1164)" d="m0 0h88v7h-88z" fill="#855FFE"/>
<path transform="translate(276,913)" d="m0 0h77v8h-77z" fill="#021365"/>
<path transform="translate(1502,1164)" d="m0 0h85l2 4v3h-87z" fill="#855FFE"/>
<path transform="translate(286,883)" d="m0 0h67v9h-67z" fill="#15187D"/>
<path transform="translate(1586,1147)" d="m0 0h1v9l-85-1v-7z" fill="#855FFE"/>
<path transform="translate(738,1345)" d="m0 0h68v8h-68z" fill="#021365"/>
<path transform="translate(611,1273)" d="m0 0h68v8h-68z" fill="#021365"/>
<path transform="translate(1589,1658)" d="m0 0h66v8h-66z" fill="#011364"/>
<path transform="translate(740,1322)" d="m0 0h66v8h-66z" fill="#011364"/>
<path transform="translate(748,1297)" d="m0 0h58v9h-58z" fill="#0B1570"/>
<path transform="translate(1460,1627)" d="m0 0h49v9h-49z" fill="#15187D"/>
<path transform="translate(1215,1014)" d="m0 0h5l1 4-8 8-8 7-3 1 5 6 11 9 3 5-2 3-5-1-12-11-8-7-1-5 11-10z" fill="#F9F7FD"/>
<path transform="translate(1247,1014)" d="m0 0h5l13 12 8 7 1 3-5 5-15 14-3 2-4-1-1-4 7-7 8-7 3-3-12-11-6-5z" fill="#F9F8FD"/>
<path transform="translate(774,977)" d="m0 0h11l12 5 7 7 4 8 1 3v14l-6 12-8 7-8 3-11 1-10-3-8-6-6-8-2-6v-14l4-10 5-6 11-6zm2 2-10 3-8 7-5 8-1 3v13l4 9 6 7 10 5h15l10-5 6-7 4-10v-11l-4-9-7-8-8-4-4-1z" fill="#B99DFD"/>
<path transform="translate(157,853)" d="m0 0h49v8h-49z" fill="#011364"/>
<path transform="translate(165,1327)" d="m0 0 9 3 7 8 2 5v10l-4 8-7 6-7 2-2-8 8-4 3-6-1-9-5-5-3-1z" fill="#FAF9FD"/>
<path transform="translate(157,1327)" d="m0 0h2v9l-6 3-3 6 1 9 5 5 5 2-2 8-9-3-7-8-2-5v-11l5-8 6-5z" fill="#F9F8FD"/>
<path transform="translate(1502,1375)" d="m0 0h45v8h-45z" fill="#855FFE"/>
<path transform="translate(1596,1273)" d="m0 0h45v8h-45z" fill="#855FFE"/>
<path transform="translate(1078,873)" d="m0 0h5l6 4 2 3v7l-3 5-3 2h-9l-5-4-1-2v-8l5-6z" fill="#EBE4FD"/>
<path transform="translate(1502,1305)" d="m0 0h43v8h-43z" fill="#855FFE"/>
<path transform="translate(1502,1196)" d="m0 0h43v8h-43z" fill="#855FFE"/>
<path transform="translate(1347,1196)" d="m0 0h43v8h-43z" fill="#855FFE"/>
<path transform="translate(1441,1164)" d="m0 0h45v7h-45z" fill="#855FFE"/>
<path transform="translate(1552,1305)" d="m0 0h31v8h-31z" fill="#855FFE"/>
<path transform="translate(1397,1196)" d="m0 0h31v8h-31z" fill="#855FFE"/>
<path transform="translate(835,342)" d="m0 0 5 2-1 6-5 11-3 9-2 2-4-1-1-1 1-8 5-13 3-6z" fill="#B99DFD"/>
<path transform="translate(1037,873)" d="m0 0 4 1 5 5 4-2 4-4 4 2-2 4h-2l-2 6 6 7-3 3-5-5-4-2-6 6h-3l1-5 5-6-7-7z" fill="#EDE7FD"/>
<path transform="translate(867,309)" d="m0 0h5l1 5-9 7-13 10-4-2 1-5 7-7z" fill="#B99DFD"/>
<path transform="translate(1502,1408)" d="m0 0h31v7h-31z" fill="#855FFE"/>
<path transform="translate(906,297)" d="m0 0h11l2 2-1 5-23 3h-5l-2-2 1-4 9-3z" fill="#B99DFD"/>
<path transform="translate(1130,298)" d="m0 0 12 2 14 5 2 4-2 3-7-1-13-4-7-2-2-4z" fill="#B99DFD"/>
<path transform="translate(1172,318)" d="m0 0h5l12 12 5 7-1 5h-5l-11-13-6-5v-5z" fill="#B99DFD"/>
<path transform="translate(1199,357)" d="m0 0h5l4 13 1 6v10l-5 1-2-2-3-18-1-9z" fill="#B99DFD"/>
<path transform="translate(1204,404)" d="m0 0 5 1v29l-5 1-2-2v-27z" fill="#B99DFD"/>
<path transform="translate(938,297)" d="m0 0h26l3 2-1 5h-29l-1-5z" fill="#B99DFD"/>
<path transform="translate(1082,297)" d="m0 0h26l3 3-1 4h-29l-1-1v-5z" fill="#B99DFD"/>
<path transform="translate(1616,1391)" d="m0 0h25v8h-25z" fill="#855FFE"/>
<path transform="translate(823,389)" d="m0 0h5l1 2v26h-7v-27z" fill="#B99DFD"/>
<path transform="translate(1186,1634)" d="m0 0 3 3 8 16 3 5v2h-14z" fill="#FDFDFD"/>
<path transform="translate(1204,452)" d="m0 0 5 1v27h-7v-26z" fill="#B99DFD"/>
<path transform="translate(610,1321)" d="m0 0h99v1h-98v8l-2-2h-16v-4h16z" fill="#B99DFD"/>
<path transform="translate(1708,1533)" d="m0 0h5l1 4-8 10-7 7-5-1 1-5 7-7z" fill="#B99DFD"/>
<path transform="translate(1724,1494)" d="m0 0 4 1v8l-4 15-3 3-4-2 2-10 3-13z" fill="#B99DFD"/>
<path transform="translate(1677,1560)" d="m0 0h5l1 4-8 5-12 4-5-1-1-3 1-2 15-5z" fill="#B99DFD"/>
<path transform="translate(1724,1329)" d="m0 0 5 1v25l-5 1-1-1v-25z" fill="#B99DFD"/>
<path transform="translate(1576,1569)" d="m0 0h24l2 4-1 2h-25l-1-5z" fill="#B99DFD"/>
<path transform="translate(1724,1453)" d="m0 0 4 1 1 1v23l-1 2-5-1v-25z" fill="#B99DFD"/>
<path transform="translate(1724,1288)" d="m0 0 5 1v24l-4 2-2-1v-25z" fill="#B99DFD"/>
<path transform="translate(1725,1246)" d="m0 0 4 2v24l-5 1-1-1v-25z" fill="#B99DFD"/>
<path transform="translate(1618,1569)" d="m0 0h23l2 2-1 4h-25l-1-4z" fill="#B99DFD"/>
<path transform="translate(1535,1569)" d="m0 0h23l2 1v5h-26l-1-3z" fill="#B99DFD"/>
<path transform="translate(1494,1569)" d="m0 0h23l2 2-1 4h-25l-1-4z" fill="#B99DFD"/>
<path transform="translate(1453,1569)" d="m0 0h23l2 4-1 2h-25l-1-5z" fill="#B99DFD"/>
<path transform="translate(1724,1205)" d="m0 0 4 1 1 1v23l-2 2-4-1v-25z" fill="#B99DFD"/>
<path transform="translate(1805,1106)" d="m0 0 2 1 6 16v2h-15l3-10z" fill="#602DD6"/>
<path transform="translate(1700,1107)" d="m0 0 3 3 5 12v3h-15l1-4 5-12z" fill="#602ED6"/>
<path transform="translate(160,1519)" d="m0 0 5 1v23l-4 2-2-2v-23z" fill="#B99DFD"/>
<path transform="translate(161,1164)" d="m0 0 4 2v23l-5 1-1-1v-23z" fill="#B99DFD"/>
<path transform="translate(275,1031)" d="m0 0h22l2 1-1 5h-24l-1-4z" fill="#B99DFD"/>
<path transform="translate(235,1031)" d="m0 0h23l2 4-2 2h-23l-1-5z" fill="#B99DFD"/>
<path transform="translate(161,1558)" d="m0 0 4 2v22l-1 2-5-1v-23z" fill="#B99DFD"/>
<path transform="translate(160,1125)" d="m0 0 5 1v23l-4 2-2-2v-23z" fill="#B99DFD"/>
<path transform="translate(178,1633)" d="m0 0 5 1 7 7 8 6-1 4h-5l-13-11-2-3z" fill="#B99DFD"/>
<path transform="translate(160,1480)" d="m0 0 5 1v23l-5 1-1-1v-23z" fill="#B99DFD"/>
<path transform="translate(160,1401)" d="m0 0 5 1v23l-5 1-1-1v-23z" fill="#B99DFD"/>
<path transform="translate(160,1283)" d="m0 0 5 1v23l-5 1-1-1v-23z" fill="#B99DFD"/>
<path transform="translate(161,1243)" d="m0 0 4 2v22l-4 2-2-1v-24z" fill="#B99DFD"/>
<path transform="translate(160,1204)" d="m0 0 5 1v23l-5 1-1-1v-23z" fill="#B99DFD"/>
<path transform="translate(162,1086)" d="m0 0 5 1-2 23-5 1-1-1v-13l2-10z" fill="#B99DFD"/>
<path transform="translate(314,1031)" d="m0 0h23l1 5-1 1h-23l-1-5z" fill="#B99DFD"/>
<path transform="translate(211,1654)" d="m0 0 8 1 15 2 1 5-1 1h-8l-15-3-1-5z" fill="#B99DFD"/>
<path transform="translate(161,1440)" d="m0 0 4 2v22l-4 2-2-2v-23z" fill="#B99DFD"/>
<path transform="translate(161,1598)" d="m0 0 5 1 5 16 1 6-5 1-5-11-2-8z" fill="#B99DFD"/>
<path transform="translate(215,1033)" d="m0 0 5 1-1 5-12 4-6 3h-4l-1-4 8-5z" fill="#B99DFD"/>
<path transform="translate(182,1052)" d="m0 0 4 1-1 5-7 8-4 7h-5l-1-3 7-11z" fill="#B99DFD"/>
<path transform="translate(1079,877)" d="m0 0 5 1 3 4v5l-3 3h-7l-3-3v-6z" fill="#5F2CD5"/>
<path transform="translate(354,1031)" d="m0 0h20v6h-21l-1-4z" fill="#B99DFD"/>
<path transform="translate(1555,1687)" d="m0 0h14v9h-14z" fill="#15187D"/>
<path transform="translate(250,1657)" d="m0 0h20v7l-20-1-1-5z" fill="#B99DFD"/>
<path transform="translate(252,913)" d="m0 0h15v8h-15z" fill="#011364"/>
<path transform="translate(445,808)" d="m0 0h6l3 3v6l-4 3-6-1-2-3v-5z" fill="#F71B94"/>
<path transform="translate(446,907)" d="m0 0 6 1 2 3v5l-3 3h-6l-3-3 1-7z" fill="#F71B94"/>
<path transform="translate(446,839)" d="m0 0 6 1 2 2v6l-3 3h-6l-3-4 1-6z" fill="#F71B94"/>
<path transform="translate(446,745)" d="m0 0h5l3 3v6l-3 3-7-1-2-3 1-6z" fill="#F71B94"/>
<path transform="translate(445,871)" d="m0 0h6l3 3-1 7-6 2-4-2-1-7z" fill="#F71B94"/>
<path transform="translate(447,776)" d="m0 0 6 2 1 7-3 3h-6l-3-3 1-7z" fill="#F71B94"/>
<path transform="translate(1611,658)" d="m0 0 2 3v28l-7-4 2-9z" fill="#F61993"/>
<path transform="translate(718,1322)" d="m0 0h13v8h-13z" fill="#08146C"/>
<path transform="translate(1102,890)" d="m0 0h19l1 4h-21z" fill="#E8E0FD"/>
<path transform="translate(1581,886)" d="m0 0 5 1 2 5-3 4h-6l-2-3 1-5z" fill="#09156D"/>
<path transform="translate(902,616)" d="m0 0 5 2 9 5-4 1h-13l-2-2z" fill="#FBC550"/>
<path transform="translate(824,484)" d="m0 0 5 2v10h-7v-11z" fill="#B99DFD"/>
<path transform="translate(568,1322)" d="m0 0 15 2v4h-11l-5-3z" fill="#07146C"/>
<path transform="translate(564,1199)" d="m0 0 4 1-2 5-2 9-3 1-1-1v-9z" fill="#0D1672"/>
<path transform="translate(593,1324)" d="m0 0h16v4h-16z" fill="#051469"/>
<path transform="translate(561,1299)" d="m0 0 3 1v16h-4v-16z" fill="#14187B"/>
<path transform="translate(560,1274)" d="m0 0 4 1v15l-4 1z" fill="#181981"/>
<path transform="translate(560,1223)" d="m0 0 4 1v15l-4 1z" fill="#181981"/>
<path transform="translate(575,1194)" d="m0 0h16v4h-16z" fill="#031367"/>
<path transform="translate(561,1248)" d="m0 0 3 1v15l-4 1v-16z" fill="#181980"/>
<path transform="translate(601,1194)" d="m0 0h9v4h-9z" fill="#051469"/>
<path transform="translate(1431,1569)" d="m0 0 5 1v5h-5z" fill="#B99DFD"/>
</svg>
