<?xml version="1.0" encoding="UTF-8"?>
<svg version="1.1" viewBox="0 0 1600 1200" width="1280" height="1280" xmlns="http://www.w3.org/2000/svg">
<path transform="translate(800,174)" d="m0 0 8 1 25 14 15 9 28 16 41 24 28 16 26 15 17 10 25 14 48 28 23 13 24 14 23 13 21 12 26 15 15 10 4 5v13l-6 17-10 27-10 32-16 54-9 32-14 44-8 28-12 36-7 15-3 5-6 4-6 8-6 5-1 2v6l10 7 25 14 19 11 10 7 3 3 1 4-4 7-13 8-26 15-32 19-53 31-27 16-26 15-15 9-26 15-24 14-22 13-24 14-18 10-9 3h-8l-11-4-23-13-43-25-23-13-24-14-26-15-24-14-23-13-13-8-27-15-17-10-19-11-17-10-18-10-46-27-23-13-26-15-17-10-28-16-4-4-1-8 7-8 26-15 24-14 10-7-5-5-3-11 1-7 7-6 15-9 56-32 25-15 18-10 24-14 26-15 25-14 24-14 26-15 10-5 13-2-1-10 5-17 8-25 15-50 15-48 22-72 15-49 8-25 4-6zm-419 521-5 4 1 5 6 4 4 1-2-10-1-4zm757 77-1 6v4l5-1 3-4-2-4z" fill="#741CE8"/>
<path transform="translate(797,186)" d="m0 0h6l11 6 10 6 14 7v2l5 2 4 2v2l5 1 23 13 25 15 25 14 15 9 22 13 21 12 25 14 17 10 22 13 24 14 28 16 18 10 10 6 3 3 14 8 11 7 14 8 9 8 4 13v8l-7 23-8 24-2 3-2 11-5 14-4 17-7 22-7 23-5 17-8 26-9 31-13 41-5 10-3 1v2l-3 1h-7l-7-3-27-15-10-6-14-8-16-9-17-10-21-12-19-11-7-3-18-10-20-12-25-14-16-10-22-12-46-27-26-15-18-10-13-8-18-10-14-9-5-6v-8l2-9 8-27 28-91 9-29 15-49 13-42 8-26 2-4z" fill="#1E0576"/>
<path transform="translate(444,657)" d="m0 0 4 1 17 9 24 14 28 16 17 10 26 15 15 9 11 6 13 8 22 12 5 3 7 4 9 5v2l5 1 2 1-7-6-4-5-2-4 5 1 21 12 29 17 25 14 27 16 25 14 23 13 20 12 10 5 3 1h9l10-4 14-8 10-6 9-5 28-16 10-6 9-5 6-4h3v-2l15-8 10-6 11-6 12-7 22-13 26-15 5-1v-2l9-5h3v-2l16-9 24-14 2 1-4 5v7h-4l1 4 24 13 24 14 14 8-4 1v10l2 2-45 26-20 12-24 14-26 15-22 13-26 15-22 13-15 9-22 13-23 13-18 11-26 15-10 6-8 3h-8l-12-5-26-15-24-14-26-15-28-16-15-9-28-16-48-28-25-14-48-28-23-13-22-13-24-14-27-15-17-10-20-12-25-14-1-5-2-7v-4l-5 1 3-3 28-16 23-13z" fill="#0E0353"/>
<path transform="translate(837,271)" d="m0 0h6l21 12 19 11 11 6 12 7 3 1v2l4 1 8 5 10 5v2l6 2 8 4v2l7 2 4 3 9 5 6 3v2l4 1 8 5 11 6 10 6 11 6 12 7 9 5 20 12 21 12 20 12 3 3v8l-17 56-4 15-3 8-11 36-4 14-3 8-7 23-4 13-5 15-2 3-3-1v-2l-7-1-16-8-17-9-15-8-7-4-13-8-9-6-6-3-7-5-8-4-15-8-20-12-7-4-10-6-23-13-26-15-24-14-21-12-9-6-1-2v-7l12-40 18-59 12-39 9-28 7-20z" fill="#3E0D96"/>
<path transform="translate(477,158)" d="m0 0h1v14l3 12 8 16 12 18 10 16 17 5 16 7 9 7 6 7 4 8 2 7v21l-4 20-7 65-6 56-2 24-2 8-1 5 10 7 28 16 5 4 2 5-1 6-8 7-27 15-48 28-8 3h-22l-12-5-48-28-18-10-9-6-4-4-1-5 3-7 10-7 22-12 14-9 1-2-4-10-3-23-4-42-4-51-1-8-1-20-5-13-2-5v-14l3-16 4-8 7-8 12-8 13-5 31-6h4l-8-22-3-15v-16l2-11zm97 344 3 5-3 3v3l6-2 1-5-2-3z" fill="#751CE8"/>
<path transform="translate(800,174)" d="m0 0 8 1 25 14 15 9 28 16 53 31-3 1-6-3-5 1-7-2-8-1-10-4-24-14-16-9-3-1v-2l-6-2-3-2v-2l-9-3-15-9-11-6h-6l-4 2-3 10-17 55-17 56-15 49-12 38-15 49-4 13-1 7v8l4 8 5 5v5l-2 2-2 3-1 12-2 13v7l5 2v1l-8 2-1 6 6 2 7 4v2l-4-1-10-6-6-1-10 6-5 2 3 3 5 3-2 1-8-4-6 1-11 7-1 2 5 2 12 7-2 1-12-7-5-2-5 1-12 7-1 2 5 2 16 9 1 2-6-2-16-9-5-1-13 8 1 3 23 13 13 8h6l13-7h2v2l-10 5-5 2 1 3-7-2h-5l-15 9-1 2 5 2 11 6 5-2 10-5 3-3-1-4 5 2 1 2-4 4-8 4-5 3h-2l4 4 3 1-1 8-10 4-4 2-3 9-5 6-6 5h-2v5l13-5 3 1-27 16-11 6-15 9-3-1-5 1v2l-5 3-7 4-6 3 3 6 2 1v2l3 1 3 3 26 15 28 16 17 10 21 12 15 9 28 16 29 17 19 11 25 14 18 11 10 5h12l12-6 24-14 42-24 30-18 11-6 25-14 17-10 26-15 21-12 16-10 11-6 16-9 6-4 2 1-4 5-14 7-27 16-4 1v2l-10 5h-2v2l-16 8-27 16-15 9-11 6-20 12-10 5h-2v2l-11 6-14 8-20 12-11 6-9 5-17 10-13 7-4 1h-9l-9-4-11-6-22-13-27-15-27-16-46-26-15-9-23-13-5-3-1 1 1 4 3 1v2l3 1v2l4 2 3 3-10-4v-2l-5-2-8-4-10-6-11-6-13-8-11-6-17-10-16-9-17-10-21-12-24-14-42-24-4 1-26 15-23 13-14 8-3 4 1 5 8 4 3 3 23 13 41 24 25 14 24 14 15 9 25 14 34 20 28 16 23 13 20 12 23 13 48 28 28 16 26 15 24 14 21 12 8 3h8l10-4 24-14 22-13 15-9 23-13 13-8 39-23 26-15 17-10 24-14 26-15 30-18 26-15 10-6v-2l5-3 1-4-7-6-28-16-27-15-3-2v-4h5l11 7 42 24 10 7 3 3 1 4-4 7-13 8-26 15-32 19-53 31-27 16-26 15-15 9-26 15-24 14-22 13-24 14-18 10-9 3h-8l-11-4-23-13-43-25-23-13-24-14-26-15-24-14-23-13-13-8-27-15-17-10-19-11-17-10-18-10-46-27-23-13-26-15-17-10-28-16-4-4-1-8 7-8 26-15 24-14 10-7-5-5-3-11 1-7 7-6 15-9 56-32 25-15 18-10 24-14 26-15 25-14 24-14 26-15 10-5 13-2-1-10 5-17 8-25 15-50 15-48 22-72 15-49 8-25 4-6z" fill="#B150D0"/>
<path transform="translate(616,522)" d="m0 0 6 2h3l3 5 3 7-1 15-3 10-3 9-9 11v2h4l-1 3-14 8 2 4-3 2h-3l-2 5-9 10-13 10-9 6-20 9-21 6-10 3-22 2-5 3-9-1-7-1 2 6 6 5 25 14 17 10 104 60 24 14 23 13 20 12 28 16 29 17 19 11 25 14 18 11 10 5h12l12-6 24-14 42-24 30-18 11-6 25-14 17-10 26-15 21-12 16-10 11-6 16-9 6-4 2 1-4 5-14 7-27 16-4 1v2l-10 5h-2v2l-16 8-27 16-15 9-11 6-20 12-10 5h-2v2l-11 6-14 8-20 12-11 6-9 5-17 10-13 7-4 1h-9l-9-4-11-6-22-13-27-15-27-16-46-26-15-9-23-13-5-3-1 1 1 4 3 1v2l3 1v2l4 2 3 3-10-4v-2l-5-2-8-4-10-6-11-6-13-8-11-6-17-10-16-9-17-10-21-12-24-14-42-24-4 1-26 15-23 13-14 8-3 4 1 5 8 4 3 3 23 13 41 24 25 14 24 14 15 9 25 14 34 20 28 16 23 13 20 12 23 13 48 28 28 16 26 15 24 14 21 12 8 3h8l10-4 24-14 22-13 15-9 23-13 13-8 39-23 26-15 17-10 24-14 26-15 30-18 26-15 10-6v-2l5-3 1-4-7-6-28-16-27-15-3-2v-4h5l11 7 42 24 10 7 3 3 1 4-4 7-13 8-26 15-32 19-53 31-27 16-26 15-15 9-26 15-24 14-22 13-24 14-18 10-9 3h-8l-11-4-23-13-43-25-23-13-24-14-26-15-24-14-23-13-13-8-27-15-17-10-19-11-17-10-18-10-46-27-23-13-26-15-17-10-28-16-4-4-1-8 7-8 26-15 24-14 10-7-5-5-3-11 1-7 7-6 15-9 56-32 25-15 18-10 24-14 26-15z" fill="#D3829B"/>
<path transform="translate(564,287)" d="m0 0h1v9l-4 20-7 65-6 56-2 24-2 8-1 5v1l-6 1 5 4 25 14 13 8 3 3v5l-4 2 1-6-1-2h-3l1 3 2 1-4 2-1 3 3 1-8 5-26 15-34 20-12 6-10 2-11-1-12-5-15-9-17-10-21-12-19-11-5-4v-5l7-6 24-13 15-9 7-1 14 7 12 3h7l25-20 3-3h2l1-3 9-7 5-5 11-13 2-4 1-9 1-22 2-22 1-33 1-3-24 5-13 1h-16l-16-2v-2l4-4 21 2 7-2-7-4v-2h-2l-3-10 11-1 6-2 15-3 18-6 11-7 8-7 3-5 2-1z" fill="#1F0576"/>
<path transform="translate(893,238)" d="m0 0 5 1 8 2 8 1h3l5 1 11 4 48 28 18 10 24 14 26 15 21 12 26 15 28 16 26 15 28 16 15 10 4 5v13l-6 17-10 27-10 32-16 54-9 32-14 44-8 28-12 36-7 15-3 5-6 4-10 7-9 5-15 9-11 6-22 13-25 14-17 10-24 14h-4l1-4 7-8 1-4 2-1 2-7 2-3h2v-2l4-4 7-11 3-4 6-12 3-8 4-11 2-2 4-11 3-14 4-3 2-11v-6l-1-4h-2v-2l-4-2-20-12-26-15-11-7 2-1 21 12 19 11 21 12 9 5 17 10 14 8 17 10 9 5 4 1h10v-2l4-4 6-16 14-45 10-35 7-21 4-15 10-33 4-14 3-10 4-12 2-10 3-7 11-34 2-7v-8l-4-13-8-7-21-12-10-7-11-6v-2l-5-2-27-15-24-14-21-12-15-9-26-15-21-12-23-13-49-29-23-13z" fill="#3A15B9"/>
<path transform="translate(700,539)" d="m0 0 6 1 10 6 2 3v3l1-1 7 1 11 7-2 4-7 4 2 1 9-5 7 1 9 5 2 4-11 7h3l10-6 7 1 9 6 2 3-5 5h2l6-3 7 1 11 7-5 5-10 6-1 2-5-2-6-1-14 8 4 3 4 2 2 4 6 4-5 5-5 2-1 4 12-7 9 1 10 6-1 3-11 7-4 1-15-8v5l-12 8-6-1-14-7 5 4 11 6 17 10 21 12 16 9 4 3-2 4-14 8-6-2-22-12-22-13-25-14-13-8-7-4 1-3 16-9 6 2 9 5h3l-16-9v-2l-6 1v2l-12 7h-2v2h-7l-13-8-8-4-1-3 12-7 3-1 3-4-3-1-1 3h-2l-1 3-13 7-6-2-12-7 2-4 14-8 9 1 2 1v-2l12-7h3v-2l-15 8h-6l-22-13-15-9v-4l13-8 5 1 20 11-11-7-9-5 2-4 13-7 5 1 11 6 3 1-14-8 2-4 12-7 6 1 3 1-3-2v-2l13-8z" fill="#711CE3"/>
<path transform="translate(870,266)" d="m0 0 8 1 8 5 17 10 23 13 8 5 11 6 12 7 21 12 13 8 11 6 10 6 11 6 14 8 11 7 7 4 20 12 35 20 9 7 8 6 4 1 2 12-8 26-3 10-3 8-5 19-2 6-6 20-5 15-9 32-12 36-4 9-3 4h-8l-8-4-3-3-7-1 1-10 3-9 8-27 3-9 15-49 2-6 15-49 5-17v-8l-5-4-26-15-24-14-13-8-22-12-8-5-14-8-12-7-4-2v-2l-5-1-7-5-14-7v-2l-7-2-7-4v-2l-6-2-12-7-4-2v-2l-5-1-42-24v-2h2v-2h3l1-10z" fill="#100454"/>
<path transform="translate(531,342)" d="m0 0h6v14l-2 35-1 9-1 22-1 9-4 6-11 13-5 5-8 6-1 2h-2l-1 3-12 9-13 11-2 1h-7l-15-4-11-6-7 1-42 24-3 3v5l9 6 25 14 19 11 25 15 10 4 11 1 13-3 25-14 13-8 28-16 10-6v-2l6-2v-5l-5-4-26-15-15-9 1-2h7l16 10 24 14 3 5 1 6-7 8-22 12-24 14-28 16-8 4-3 1h-22l-12-5-48-28-18-10-9-6-4-4-1-5 3-7 10-7 22-12 14-9 1-2-1-3 6-2v-14l1-1h5v-2l6-3 9 2 4 2v-27l2-1-4-4 1-7 2-2 6 1 3 4v6h5l-1-1v-7l3-4 6-3 10 2 3-5 1-4 6-11 3-5 3-15 1-6 4-5 1-4-32-1-8-1v-1l36-2z" fill="#601FCE"/>
<path transform="translate(506,229)" d="m0 0 5 5 17 5 16 7 9 7 6 7 4 8 2 7v12l-3 6-2-1-7 8-10 7-12 6-13 4-19 3h-21l-19-3-16-5-12-6-9-7-3-3-1-5 1-2 5-1-1-4v-9l4-11 5-6 10-7 8-4 13-4 5-1h21l5 10 8 15 1 4v16l-3 10-6 9-7 6h8l9-6 8-7 7-14 1-5v-11l-2-12-4-12 7 1 9 4 10 6 8 9-2-5-4-5-14-8-12-5-6-3-4-7z" fill="#751CE8"/>
<path transform="translate(683,598)" d="m0 0h2v2l-10 5-5 2 1 3-7-2h-5l-15 9-1 2 5 2 11 6 5-2 10-5 3-3-1-4 5 2 1 2-4 4-8 4-5 3h-2l4 4 3 1-1 8-10 4-4 2-3 9-5 6-6 5h-2v5l13-5 3 1-27 16-11 6-15 9-3-1-5 1v2l-5 3-7 4-6 3 3 6 2 1v2l3 1-2 1-25-14-39-23-6-7 1-4 9-2h5v-2l18-5 18-7 7-3 10-6 4-1v-2l7-5h2v-2l9-7h2v-2h2l2-5 3-1 2-4h2l1-5 3-3 5-4 5 2 9 5 5-1 14-8 3-2 1 1h9z" fill="#B959C1"/>
<path transform="translate(607,533)" d="m0 0 7 2 1 4-1 1v7l-3 16-2 1-2 5-3 7-3 5-7 8-9 11-8 7-16 9-9 6-12 5-10 3-9 3-9 1h-10l-3 1-16-1-21-5-1-1-8-1v-4l4-6 9-6h2l-1-3 28-16 19-11 20-12 18-10 36-21h5l8-3z" fill="#C871A4"/>
<path transform="translate(444,657)" d="m0 0 3 1v1 2l5 2 6 4 2 5-3 3-5 3-5 5-15 12-1 3 2 6 4 2 19 11 12 6 9 6 8 6 8 5 39 22 3 1v2l4 1 11 7 5 2 5 3 2 4 8 4 7 5 7 4v2h2v2l9 3 6 3 3 4-5 5-10-2-3 2 2 2-10-1-7-5-10-4-6-4-5-3-8-5-4-4-7-1-10-4-2-4-5-1-6-4-9-4-25-14-7-4-9-5-7-1-24-14-15-9-25-14-1-5-2-7v-4l-5 1 3-3 28-16 23-13z" fill="#1E0575"/>
<path transform="translate(616,522)" d="m0 0 6 2h3l3 5 3 7-1 15-3 10-3 9-9 11v2h4l-1 3-14 8 2 4-3 2h-3l-2 5-9 10-13 10-9 6-20 9-21 6-10 3-22 2-5 3-9-1-7-1 2 6 6 5 25 14 17 10 104 60 24 14 23 13 20 12 28 16 29 17 19 11 25 14 18 11 10 5h12l12-6 24-14 42-24 30-18 11-6 25-14 17-10 26-15 21-12 16-10 11-6 16-9 6-4 2 1-4 5-14 7-27 16-4 1v2l-10 5h-2v2l-16 8-27 16-15 9-11 6-20 12-10 5h-2v2l-11 6-14 8-20 12-11 6-9 5-17 10-13 7-4 1h-9l-9-4-11-6-22-13-27-15-27-16-46-26-15-9-23-13-24-14-28-16-38-22-22-13-26-15-21-12-34-20-21-12 1-7 7-6 15-9 12-7h3v2l-11 7-4 6v2l8 1 8 3 14 3 16 1 3-1h15l12-3 9-3 13-5 3-3 11-6 16-10 11-12 6-8 4-4 3-9 2-2 2-5h2v-7l2-9v-8h2l-1-4-7-1-13 4-4 1 1-3z" fill="#C16FB1"/>
<path transform="translate(922,666)" d="m0 0 16 8 1 3-7 5-6 3-5 1 4 1 12-7 4-2 8 1-7-5v-3l10-2 14 7 2 3-1 2 4-1 8 3 7 5v5l-5 3 1 3 8 6-5 5-14 7-15 9-5 2-17 10h-4v2l-14 8h-5l-15-8-6 2-8 5h-2v2l6-2 12 6 5 4-5 4-7 1-10-6-7-5-10-5-7-4-1-2-8-3-9-6-2-1 2-4 3-1h7l11 7 2 3-2 3 7-3 3-3 6-1-1-5v-4l12-7 6 1 11 6-2-4 15-9h2l-1-5 12-9 1-4-2 1v2l-17 10 2 3-8 6-9 3-12-6-3-2 1-3 13-7 5-1-3-3 1-3 7-5 9-4-8-5 1-3 11-6z" fill="#1E0577"/>
<path transform="translate(564,287)" d="m0 0h1v9l-4 20-7 65-6 56-1 12-3 1-2-6-2 4-2 7-1 10-2 4h-2l-2 5-5 5-8 5-13 4-12 2h-10l-16-2v-1l8-2 10-9 15-11 1-2h2l1-3 9-7 5-5 11-13 2-4 1-9 1-22 2-22 1-33 1-3-24 5-13 1h-16l-16-2v-2l4-4 21 2 7-2-7-4v-2h-2l-3-10 11-1 6-2 15-3 18-6 11-7 8-7 3-5 2-1z" fill="#3E0C97"/>
<path transform="translate(477,158)" d="m0 0h1v14l3 12 8 16 12 18 6 11 1 4 3 6 15 6 13 7 7 6 3 5-1 3-9-10-10-6-11-4h-3l5 15 1 8v11l-3 10-6 10-10 9-7 4h-9l5-5 6-7 4-9 1-5v-16l-4-10-6-11-3-6v-2l-21 1-13 3-11 5-9 6-7 7-4 11v13l-5 1 1 7 8 7 12 7 15 5 14 3 9 1h21l19-3 13-4 14-7 10-8 5-6 1 2-6 8-10 8-12 6-21 6-19 2h-12l-22-3-11-3-9-1-2 6 1 5-2 2-11-6-8-7h-2l-5-13-2-5v-14l3-16 4-8 7-8 12-8 13-5 31-6h4l-8-22-3-15v-16l2-11z" fill="#B859C2"/>
<path transform="translate(450,484)" d="m0 0 16 2 6 2 11 1h10l18-2 8-1 7 3 7 8 3 4 1 10-5 10-8 7-14 7-17 3h-15l-16-3-10-3-10-6-7-8-2-3-1-12 2-4 5-5h2l2-4 6-4z" fill="#0D0352"/>
<path transform="translate(700,539)" d="m0 0 6 1 10 6 2 3v3l1-1 7 1 11 7-2 4-7 4 2 1 9-5 7 1 9 5 2 4-11 7h3l10-6 7 1 9 6 2 3-5 5-1 3-5 2v4l-5-2-7-4-6 1-12 7 4 3 10 5-1 3-10-5-6 1-8 4 2-5 5-3v-2l-15-7-5 1-2-2 2-1v-2l-11-6-6-1-9 4-5 3 1 4-4-2-11-6-3-3-19-11 2-4 13-7 5 1 11 6 3 1-14-8 2-4 12-7 6 1 3 1-3-2v-2l13-8z" fill="#711DE3"/>
<path transform="translate(1085,719)" d="m0 0 2 1-4 5v7h-4l1 5-5-1-8 5-11 5-10 4h-5l-1 2-14 8-10 5-5 2-2 5-13 8-14 9-11 6-13 7-9 2v2h-3l-2 4-9 4h-3l-2 4-6 1v3l-13 7-9 5-14 9-21 13-10 6-7 3-10 6-7 3h-10l-16-8-34-20-9-5-11-6-11-7-12-6-9-6-7-4-10-6-12-6v-2l-6-2-8-4v-2l-6-2-10-6-9-5-5-5-6-5-4-5-2-4 5 1 21 12 29 17 25 14 27 16 25 14 23 13 20 12 10 5 3 1h9l10-4 14-8 10-6 9-5 28-16 10-6 9-5 6-4h3v-2l15-8 10-6 11-6 12-7 22-13 26-15 5-1v-2l9-5h3v-2l16-9z" fill="#280A7A"/>
<path transform="translate(893,238)" d="m0 0 5 1 8 2 8 1h3l5 1 11 4 48 28 18 10 24 14 26 15 21 12 26 15 28 16 26 15 28 16 15 10 2 3h-6l-1 2-9-3-10-3-22-12-16-9-29-16-24-14-21-12-22-13-26-15-21-12-23-13-49-29-23-13z" fill="#761EE7"/>
<path transform="translate(1127,374)" d="m0 0 6 2 27 15 11 6 16 4h2 6l2 2v13l-6 17-10 27-10 32-16 54-9 32-14 44-8 28-12 36-7 15-3 5-6 4h-3l1-6-1-3-9-2-6-4-5-3v-2l-4-1v-2l-4-1v-2l-5-2-21-12-15-9-7-4-5-2-19-12-28-16-11-7 2-1 21 12 19 11 21 12 9 5 17 10 14 8 17 10 9 5 4 1h10v-2l4-4 6-16 14-45 10-35 7-21 4-15 10-33 4-14 3-10 4-12 2-10 3-7 11-34 2-7v-8l-4-13-8-7-21-12-10-7-11-6z" fill="#3F0D98"/>
<path transform="translate(606,597)" d="m0 0 13 7 6-2 4-3 3 1-7 5h-2l1 4-7 6-2 5-6 5-3 5h-2v2l-9 7h-2v2l-7 5h-2v2l-11 6-6 4-20 7-8 3-12 2v2l-14 3 1 4 4 5-6-2-34-20-5-6v-4h7l9 1 5-3 22-2 28-8 15-6 11-6 11-8 9-7 7-8 3-5z" fill="#C065B6"/>
<path transform="translate(676,613)" d="m0 0 5 2 1 2-4 4-8 4-5 3h-2l4 4 3 1-1 8-10 4-4 2-3 9-5 6-6 5h-2v5l13-5 3 1-27 16-11 6-15 9-3-1-5 1v2l-5 3-7 4-6 3 3 6 2 1v2l3 1-2 1-25-14-10-6-3-5 1-3 7-1 11-5 5-3 10-3 15-9 4-3h2l1-3 5-3 2-2h3v-2l14-10 4-5 4-1 2-6 4-5 7-4 3-6 5 1 6 3 5-2 10-5 3-3z" fill="#B150D0"/>
<path transform="translate(800,174)" d="m0 0 8 1 25 14 15 9 28 16 53 31-3 1-6-3-5 1-7-2-8-1-10-4-24-14-16-9-3-1v-2l-6-2-3-2v-2l-9-3-15-9-11-6h-6l-4 2-3 10-17 55-17 56-15 49-12 38-12 40h-1v-8l2-6 3-11h-1l-1-8 17-55 18-58 20-66 10-32 4-11 5-5z" fill="#B75AC1"/>
<path transform="translate(639,509)" d="m0 0 5 1 2-1h8v2l3 1-1 4 3 1v20l-1 1-1 10-5 12 2 2v3l-8 5-1 2 5 2 16 9 1 2-6-2-16-9-5-1-13 8 1 3 23 13 13 8-3 1h-3l-10 6-7 4-5-1-13-8v-2l8-5-5 2-5 3-5-2-9-5-4-4 15-9 1-2-4 1v-4l8-10 3-9 3-10 1-15-3-7-2-2v-3l-4 1-4-2 4-4z" fill="#BF64B7"/>
<path transform="translate(922,666)" d="m0 0 16 8 1 3-7 5-6 3-5 1 4 1 12-7 4-2 8 1-7-5v-3l10-2 14 7 2 3-1 2 4-1 8 3 7 5v5l-5 3 1 3 8 6-5 5-14 7-10 6-2-1 7-5-4-4-7-3h-5l-7 4h-7l-1 3-4-1v-2l10-3 1-3h2l-6-9-7-1-2-1 2-4v-2l-2 1v2l-17 10 2 3-8 6-9 3-12-6-3-2 1-3 13-7 5-1-3-3 1-3 7-5 9-4-8-5 1-3 11-6z" fill="#3C0D9A"/>
<path transform="translate(431,638)" d="m0 0 10 5 24 14 22 13 28 16 26 15 15 9 21 12 24 14 26 15 10 6 2 7 3 1v2l3 1v2l4 2 3 3-10-4v-2l-5-2-8-4-10-6-11-6-13-8-11-6-17-10-16-9-17-10-21-12-24-14-42-24-4 1-26 15-23 13-14 8-3 4v5l-4-2 1-8 6-5 29-17 19-11 10-7-5-5-2-7z" fill="#D07B96"/>
<path transform="translate(430,633)" d="m0 0 11 7 25 14 17 10 21 12 52 30 24 14 28 16 24 14 21 12 26 15 15 9 28 16 29 17 19 11 25 14 18 11 10 5h12l12-6 24-14 42-24 30-18 11-6 25-14 17-10 26-15 21-12 16-10 11-6 16-9 6-4 2 1-4 5-14 7-27 16-4 1v2l-10 5h-2v2l-16 8-27 16-15 9-11 6-20 12-10 5h-2v2l-11 6-14 8-20 12-11 6-9 5-17 10-13 7-4 1h-9l-9-4-11-6-22-13-27-15-27-16-46-26-15-9-23-13-24-14-28-16-38-22-22-13-26-15-21-12-34-20-21-12z" fill="#FCFCFC"/>
<path transform="translate(710,635)" d="m0 0 6 2 13 7 34 20 21 12 16 9 4 3-2 4-14 8-6-2-22-12-22-13-25-14-13-8-7-4 1-3z" fill="#3C0C96"/>
<path transform="translate(668,492)" d="m0 0 2 1v2l6-2h8l3 4 2 15v20l-2 9-2 3h2l1 3-3 1 3 3 5 3-2 1-8-4-6 1-11 7-1 2 5 2 12 7-2 1-12-7-5-2-5 1-4 1-3-5 5-11 1-10 1-2v-19l-2-1v-4l-2-1v-2l-10 2-4-1 4-4z" fill="#B959C1"/>
<path transform="translate(636,758)" d="m0 0 5 1 21 12 29 17 25 14 27 16 25 14 23 13 20 12 10 5 3 1h13l1 2v3l-4 4-2 1h-12l-20-11-20-12-12-7-11-6-12-7-20-11-11-7-10-6-12-6v-2l-6-2-8-4v-2l-6-2-10-6-9-5-5-5-6-5-4-5z" fill="#761EE5"/>
<path transform="translate(514,245)" d="m0 0 7 1 9 4 10 6 7 8 4 11 1 4-2 9-4 8-2 2-2 5-5 2v2l-7 4-17 4-11 1-2-4-3-1 11-8 6-7 5-11 1-5v-11l-2-12z" fill="#751DE8"/>
<path transform="translate(486,236)" d="m0 0 25 3 15 6 13 7 7 6 3 5-1 3-9-10-10-6-11-4h-3l5 15 1 8v11l-3 10-6 10-10 9-7 4h-9l5-5 6-7 4-9 1-5v-16l-4-10-6-11-3-6v-2l-21 1-13 3-11 5-9 6-10 10 2-6 6-7 9-6 8-4 19-5 16-2z" fill="#C66FA6"/>
<path transform="translate(1231,657)" d="m0 0h12l12 5 17 10 25 14 11 7 2 3-1 7-7 6-27 15-17 10-11 6-4 1h-13l-12-5-15-9-23-13-13-8-3-4v-6l5-5 26-15 28-16zm-1 5-14 7-20 12-25 14-3 4 5 5 25 14 17 10 14 8 4 1h8l16-8 21-12 24-14 3-3-2-4-24-14-21-12-16-8z" fill="#C774AA"/>
<path transform="translate(432,471)" d="m0 0 5 3v2l-18 10-23 13-8 6v5l9 6 25 14 19 11 25 15 10 4 11 1 13-3 25-14 13-8 28-16 10-6v-2l6-2v-5l-5-4-26-15-15-9 1-2h7l16 10 24 14 3 5 1 6-7 8-22 12-24 14-28 16-8 4-3 1h-22l-12-5-48-28-18-10-9-6-4-4-1-5 3-7 10-7 22-12 14-9z" fill="#D3829D"/>
<path transform="translate(269,706)" d="m0 0h9l10 3 28 16 22 13 8 6 1 6-5 5-13 8-18 10-21 13-7 3-5 1h-11l-10-4-16-9-17-10-19-11-5-5v-6l9-7 52-30zm-1 5-10 4-21 12-25 15-7 5 2 4 17 10 26 15 11 7 6 2h14l17-9 15-9 16-9 12-7 1-4-9-6-14-8-25-15-12-6-5-1z" fill="#BB5DBE"/>
<path transform="translate(1079,732)" d="m0 0h5l11 7 42 24 10 7 3 3 1 4-4 7-13 8-26 15-32 19-53 31-27 16-26 15-15 9-26 15-36 21-4-2 8-6 25-14 18-11 39-23 26-15 17-10 24-14 26-15 30-18 26-15 10-6v-2l5-3 1-4-7-6-28-16-27-15-3-2z" fill="#C56EA8"/>
<path transform="translate(531,342)" d="m0 0h6v14l-2 35-1 9-1 22-1 9-4 6-11 13-5 5-8 6-1 2h-2l-1 3-12 9-13 11-2 1h-7l-15-4-4-3 7-3 5-3h2v-2l8-3 11-4 4-1v-2l11-7 7-6 8-14 6-8 7-10 4-12 2-1 2-10 3-23 1-28z" fill="#751CE9"/>
<path transform="translate(559,557)" d="m0 0 3 1v2h2l-1 6h3v6l-7 7-1 4h-2v2l-9 6-8 3-9 5-8 3h-8l-5 1 1-2-12-1 2-6 4-5 1-3 14-8 15-9 18-10z" fill="#D17C96"/>
<path transform="translate(790,193)" d="m0 0 1 3-18 58-17 56-15 49-12 38-12 40h-1v-8l2-6 3-11h-1l-1-8 17-55 18-58 19-63 5-3h2l-1-4 3-5 3-9 3-10z" fill="#BC60BF"/>
<path transform="translate(416,320)" d="m0 0 7 6 11 8 18 9-1 9-5 12-5 9-4 6h-2l-1 4-4 2h-5l-3-2-2-3-4-44z" fill="#C170B3"/>
<path transform="translate(416,314)" d="m0 0 5 5 11 7 4 2 1-2-1-5 2-5 3-1 14 3 16 3 10 1h20l-2 2h-11l3 7v3h2l3 3 9 2v1l-12 3-13-1-8-1-2 3h-2l1 3-10-2-12-3-18-10-13-12z" fill="#6020CD"/>
<path transform="translate(839,271)" d="m0 0 5 1 22 12 17 10 11 6 12 7 3 1v2l4 1 8 5 10 5v2l6 2 8 4v2l7 2 4 3 9 5 6 3v2l4 1 8 5 11 6 10 6 11 6 12 7 9 5 20 12 21 12 20 12 3 3v8l-17 56-4 15-3 8-11 36-4 14-3 8-7 23-4 13-5 15-3 2 2-9 13-42 10-33 6-18 18-60 7-21 1-5v-8l-5-5-15-9-25-14-22-13-25-14-17-10-21-12-24-14-16-9-27-16-25-14-17-10-18-10z" fill="#FBF8FB"/>
<path transform="translate(506,229)" d="m0 0 5 5 17 5 16 7 9 7 6 7 4 8 2 7v12l-3 6-2-1-7 8-10 7-12 6-13 4-19 3h-21l-9-1 3-2h5l1-3 1-2h21l2 3 15-2 15-4 5-2v-2l5-3 2-5 3-5 3-7 1-9-2-3-2-5 1-5-6-8-14-8-12-5-6-3-4-7z" fill="#6825CE"/>
<path transform="translate(679,550)" d="m0 0 6 1 15 8 4 2v2h2l-1 4-4 1v2h-3v2l-10 3 4 3-1 3-5 4-9 5-15-8-17-10 2-4 13-7 5 1 11 6 3 1-14-8 2-4z" fill="#4D1D85"/>
<path transform="translate(564,287)" d="m0 0h1v9l-4 20-1-2-5 2-3 3-12 8-4 3-12 5-13 4h-12l-6-3v-2h-2l-3-10 11-1 6-2 15-3 18-6 11-7 8-7 3-5 2-1z" fill="#3E17B9"/>
<path transform="translate(532,422)" d="m0 0h1v15l-3 22-1 5-4 7-6 5-10 4-5 4-9 4-11 1h-12l-5-1v-1l8-2 10-9 15-11 1-2h2l1-3 9-7 5-5 11-13 2-4z" fill="#3814B8"/>
<path transform="translate(922,666)" d="m0 0 16 8 1 3-7 5-6 3-5 1 8 6v2l-17 10 2 3-8 6-9 3-12-6-3-2 1-3 13-7 5-1-3-3 1-3 7-5 9-4-8-5 1-3 11-6z" fill="#3D0D9A"/>
<path transform="translate(1324,792)" d="m0 0 8 1 22 12 14 9 2 2v5l-10 7-24 13-8 3-8-1-14-7-17-10-6-5v-5l7-6 23-13zm-2 6-17 9-14 9-2 1v3l26 15 8 4h7l20-11 14-8-2-4-14-8-15-9-3-1z" fill="#C168B0"/>
<path transform="translate(410,283)" d="m0 0h2l5 10 8 8 15 9 15 5 14 3 9 1h21l19-3 13-4 14-7 10-8 5-6 1 2-6 8-10 8-12 6-21 6-19 2h-12l-22-3-11-3-9-1-2 6 1 5-2 2-11-6-8-7h-2l-5-13-2-5v-14z" fill="#C66FA7"/>
<path transform="translate(705,611)" d="m0 0h6l13 8-5 5-10 6-9-3v2l5 2 1 3-12 7h-2v2h-7l-13-8-8-4-1-3 12-7 6-3 6 2 5 2-1-3 3-3z" fill="#4A1B83"/>
<path transform="translate(842,725)" d="m0 0h7l11 7 2 3-2 3 7-3 3-3 6-1v-5l5 2 11 7 20 11 7-1-3 3h-5l-15-8-6 2-8 5h-2v2l6-2 12 6 5 4-5 4-7 1-10-6-7-5-10-5-7-4-1-2-8-3-9-6-2-1 2-4z" fill="#3C0C97"/>
<path transform="translate(640,572)" d="m0 0 5 1 22 12 12 7 4 3-2 5-11 6h-6l-22-13-15-9v-4z" fill="#4C1C84"/>
<path transform="translate(483,232)" d="m0 0 2 2v4l-16 2-21 6-11 6-7 6-4 8v3l-2 6v13l-5 1v6l-5-5-2-4v-3l-3 1 1-13 4-9 8-10 12-8 13-5z" fill="#B95ABF"/>
<path transform="translate(686,599)" d="m0 0 6 1 7 3v2l4 2 1 3-7 2v2l-6 3h-6l-8-3v4h-2l-1 3-13 7-6-2-12-7 2-4 14-8 9 1 2 1v-2l12-7z" fill="#4C1C85"/>
<path transform="translate(1079,732)" d="m0 0h5l11 7 42 24 10 7 3 3 1 4-4 7-13 8-26 15-32 19-7 4-5-1v2l-8 4-5 2v-2l26-15 20-12 24-14 14-8 3-3 5-4 1-4-7-6-28-16-27-15-3-2z" fill="#C570AF"/>
<path transform="translate(537,475)" d="m0 0h7l16 10 24 14 3 5 1 6-7 8-22 12-24 14-28 16-8 4-3 1h-9v-2l-3-1 16-4 25-14 13-8 28-16 10-6v-2l6-2v-5l-5-4-26-15-15-9z" fill="#B95BBE"/>
<path transform="translate(929,696)" d="m0 0m-1 1h8l5 5 3 4v2l-5 4-4 2h-4v2h4l1-2 9-2 5-3 8 1 9 6-5 5-6 5-5 2-5 3-2-1 2-3-9-6-13-7-3-2-6 1-4 1 4-4 4-1-1-5z" fill="#3C0C98"/>
<path transform="translate(887,715)" d="m0 0h3l5 5 16 8 12 7 3 2-1 4-10 6-4-1-15-8-7-4-11-7-4-2 2-4z" fill="#1E0576"/>
<path transform="translate(1193,677)" d="m0 0 5 1-3 3h-2l-1 3-22 13v3 2l5 2 23 13 17 10 14 8 5 2h8l7-1 14-8 4-3 6-1-3 3-19 11-8 3h-13l-12-5-15-9-23-13-13-8-3-4v-6l5-5z" fill="#CE7898"/>
<path transform="translate(438,337)" d="m0 0 6 2 8 4-1 9-5 12-5 9-4 6h-2l-1 4-4 2h-5l-3-2-2-3v-18l3 1 2 3 5-1 4-4 4-13 1-9z" fill="#B959C2"/>
<path transform="translate(225,730)" d="m0 0 2 4-15 9-6 4 1 3 17 10 26 15 11 7 6 2 10 1 3 1 5-2 6-3 7-3 14-8 1 2-25 15-10 3h-11l-10-4-16-9-17-10-19-11-5-5v-6l9-7 7-4 5-1h3z" fill="#CA7AAD"/>
<path transform="translate(468,242)" d="m0 0h21v4l-25 5-14 5-9 6-6 8-3 7-1 3v8l1 5-4-2-3-4-1-4v-12l4-8 4-5 10-7 8-4 13-4z" fill="#2E0D81"/>
<path transform="translate(764,667)" d="m0 0 6 1 21 12 12 7v4l-11 7-6 2-13-7-4-4v-3h3l1-4h-2l-1-4 3-1-8-3z" fill="#1F0577"/>
<path transform="translate(575,725)" d="m0 0 9 3 5 1 48 28 2 7 3 1v2l3 1v2l4 2 3 3-10-4v-2l-5-2-8-4-10-6-11-6-13-8-8-4v-2l-9-6-3-4z" fill="#B759C0"/>
<path transform="translate(679,550)" d="m0 0 6 1 15 8 4 2v2h2l-1 4-4 1v2h-3v2l-5 2h-6l-15-9-7-4 2-4z" fill="#4B1C84"/>
<path transform="translate(807,692)" d="m0 0 6 1 11 6 8 6v2l-14 8-4 1-16-8-7-5v-2z" fill="#200579"/>
<path transform="translate(949,669)" d="m0 0 6 1 12 7v3h2l7 2 9 5 1 1v5l-5 3v3l-5-1-11-6v-2l-5-2-3-2v-2l-5-2-10-8v-3z" fill="#3911AC"/>
<path transform="translate(439,315)" d="m0 0 12 2 25 5-5 5-2 5-2 2-5 1h-8l-13-4-4-2-1-8 2-5z" fill="#771EE7"/>
<path transform="translate(856,216)" d="m0 0 9 1 9 3 7 3v2l3-1 3 2 4-1 9 3 24 14 5 4-4-1-5-2-5 1-7-2-8-1-10-4-24-14-10-6z" fill="#B053D0"/>
<path transform="translate(961,690)" d="m0 0 7 3 11 6 4 3 4 2-1 3-11 6-7-1-11-6-8-5-1-3z" fill="#1E0576"/>
<path transform="translate(269,706)" d="m0 0h9l10 3 16 9-2 2 10 7-1 2-21-12-8-4-5-1h-9l-10 4-21 12-8 5h-4l-4 2-3-2 17-10 26-15z" fill="#C46EAF"/>
<path transform="translate(1096,436)" d="m0 0 1 3-15 49-3 12-3 8-11 36-4 14-3 8-7 23-4 13-5 15-3 2 2-9 13-42 10-33 6-18 18-60 6-19z" fill="#FBFAFB"/>
<path transform="translate(410,283)" d="m0 0h2l5 10 8 8 15 9 15 5 14 3 9 1h21l19-3 13-4 14-7 10-8 5-6 1 2-6 8-10 8-12 6-21 6-19 2h-12l-22-3-17-5-10-5-12-9-6-7-4-7z" fill="#FDFDFD"/>
<path transform="translate(534,698)" d="m0 0 5 2 38 22 8 5-1 2-5-2-4-2 5 6 8 6-2 1-21-12-24-14-7-4 1-5v-3z" fill="#C770A4"/>
<path transform="translate(473,424)" d="m0 0h7l6 3 4 5v7l-6 7-3 1h-7l-6-4-3-6 1-7z" fill="#D07997"/>
<path transform="translate(1092,712)" d="m0 0 2 1-4 5-14 7-27 16-4 1v2l-10 5h-2v2l-16 8-27 16-15 9-11 6-20 12-10 5-2-1 8-6 25-14 24-14 26-15 23-13 20-12 19-11z" fill="#FBF8FB"/>
<path transform="translate(640,595)" d="m0 0h5l13 8v3l-10 6-7 4-5-1-13-8v-2z" fill="#4C1C84"/>
<path transform="translate(955,392)" d="m0 0 5 1 42 24 11 7 2 2-1 5-5-2-22-12-27-16-6-4z" fill="#D17B96"/>
<path transform="translate(604,816)" d="m0 0h8l1 3h-2l1 5 8 2 2-5 4 2 1 1v-2l5 2 2 5-4 4-4 2 1 3-10-1-6-3v-2l-4-2-9-3-5-6v-1l8-2z" fill="#1E0576"/>
<path transform="translate(1287,682)" d="m0 0 4 1 16 9 3 4-1 7-7 6-27 15-2 1-7 1-8 6-10 5-6 1h-8v-1l10-2 17-9 15-9 23-13 5-4-1-3-5-3-1-3-11-7z" fill="#B95CBC"/>
<path transform="translate(622,583)" d="m0 0 12 6 5 3-1 3-13 8-6 2-12-7-4-4z" fill="#4D1D85"/>
<path transform="translate(486,236)" d="m0 0 25 3 15 6 13 7 7 6 3 5-1 3-9-10-10-6-14-5-21-3h-20l-19 4-11 5-9 6-10 10 2-6 6-7 9-6 8-4 19-5 16-2z" fill="#FCFCFC"/>
<path transform="translate(1079,732)" d="m0 0h5l11 7 42 24 10 7 3 3 1 4-4 2-3 4h-6l5-4 1-4-7-6-28-16-27-15-3-2z" fill="#C166B3"/>
<path transform="translate(805,176)" d="m0 0h5l23 13 15 9 28 16-4 1-7-4-6-4-11-2-15-7-21-12-7-5z" fill="#C676BA"/>
<path transform="translate(516,103)" d="m0 0 1 2-7 19-6 22-2 11-1 16-2-2-3-14v-12l4-16 8-16 7-9z" fill="#8229E0"/>
<path transform="translate(686,599)" d="m0 0 6 1 7 3v2l4 2 1 3-7 2v2l-6 3h-6l-13-5-2-5 12-7z" fill="#4D1C88"/>
<path transform="translate(705,611)" d="m0 0h6l13 8-5 5-10 6-11-3-3-1v-2h-2l-2-5 3-3z" fill="#4E1D86"/>
<path transform="translate(853,376)" d="m0 0 9 4 11 6 20 12 9 6 1 3-3 3-19-10-13-8-15-9-1-1v-5z" fill="#D17B96"/>
<path transform="translate(700,539)" d="m0 0 6 1 10 6 2 3-7 5h-2v2l-5 2-5-1-9-4-5-3v-2l13-8z" fill="#4C1C87"/>
<path transform="translate(835,708)" d="m0 0 6 1 9 6 1 3-16 9-5-1-12-7 2-4z" fill="#22067B"/>
<path transform="translate(709,567)" d="m0 0 6 1 9 5 2 4-8 6-5 3-5-1-12-5-1-4 4-4z" fill="#491A83"/>
<path transform="translate(695,582)" d="m0 0 9 2 9 6-1 3-9 5-4 2-7-1-11-6v-4l8-5z" fill="#4A1B82"/>
<path transform="translate(819,609)" d="m0 0h6l10 6 3 4-13 8-8-1-10-6v-4z" fill="#3A0B95"/>
<path transform="translate(739,563)" d="m0 0 7 1 9 5 2 4-12 8-3 1-12-6-5-3 2-4z" fill="#481A82"/>
<path transform="translate(901,654)" d="m0 0 6 2 10 6v4l-12 8-6-1-12-7 1-3 11-7z" fill="#22067A"/>
<path transform="translate(881,643)" d="m0 0 6 2 11 7v2l-12 8h-6l-11-6-3-2 1-3 11-6z" fill="#24067D"/>
<path transform="translate(850,649)" d="m0 0 6 1 10 5 3 4-14 8-7-1-11-6v-3z" fill="#22067B"/>
<path transform="translate(759,574)" d="m0 0 7 1 9 6 2 3-10 7-3 2-5-1-11-6-2-4z" fill="#3C0C96"/>
<path transform="translate(719,551)" d="m0 0 7 1 11 7-2 4-9 5h-2v2l-8-2-10-6 2-4z" fill="#491A82"/>
<path transform="translate(716,593)" d="m0 0 10 4 7 4-2 4-12 7-9-3-9-5v-3l6-3h2l1-3z" fill="#491A82"/>
<path transform="translate(735,605)" d="m0 0 6 1 11 6v3l-13 9-7-2-11-7v-2z" fill="#3E0D93"/>
<path transform="translate(876,686)" d="m0 0 9 2 8 6-2 4-10 6-5 1-14-9 4-4z" fill="#200578"/>
<path transform="translate(747,634)" d="m0 0 5 1 9 5 1 4-12 8-6-1-13-7v-3l12-6z" fill="#3D0C96"/>
<path transform="translate(780,586)" d="m0 0 7 1 11 7-5 5-9 5-7-1-11-7v-2z" fill="#3C0C96"/>
<path transform="translate(729,579)" d="m0 0 6 1 11 6-1 4-8 5-4 3-6-2-11-6v-3l8-5z" fill="#481A82"/>
<path transform="translate(724,623)" d="m0 0h6l10 5 3 2v3l-13 8-6-1-12-7v-3z" fill="#3E0D95"/>
<path transform="translate(816,651)" d="m0 0 9 3 7 4-1 5-12 7-5-1-11-6v-4z" fill="#25067E"/>
<path transform="translate(857,674)" d="m0 0 13 5 3 3-2 4-10 6-4 1-15-8-1-2 10-6z" fill="#21067A"/>
<path transform="translate(860,632)" d="m0 0 6 1 12 7-1 3-12 7-7-1-10-6-1-4 12-6z" fill="#22067B"/>
<path transform="translate(891,673)" d="m0 0 7 1 9 5 2 3-7 5-8 4-5-1-8-5-3-2 1-4z" fill="#200579"/>
<path transform="translate(765,646)" d="m0 0h6l11 6 1 4-14 8-5-1-11-7v-3z" fill="#3C0C97"/>
<path transform="translate(805,669)" d="m0 0h6l11 7 2 3-14 8-5-1-13-7 1-3z" fill="#1F0577"/>
<path transform="translate(831,637)" d="m0 0 9 3 8 6-4 4-10 6-9-3-8-5 1-3 10-6z" fill="#200579"/>
<path transform="translate(922,666)" d="m0 0 16 8 1 3-7 5-7 2-6-1-10-4-2-4 9-5z" fill="#1F0578"/>
<path transform="translate(872,661)" d="m0 0 6 1 10 7-1 3-10 6h-7l-12-6-1-4z" fill="#1E0576"/>
<path transform="translate(841,620)" d="m0 0 6 2 11 7-4 4-11 6-9-3-8-6 2-3 11-6z" fill="#22067C"/>
<path transform="translate(756,617)" d="m0 0 6 1 11 7-5 5-9 5-5-1-11-6v-4l10-6z" fill="#3C0C96"/>
<path transform="translate(846,692)" d="m0 0 8 1 9 7v3l-14 7-9-3-8-6 3-3z" fill="#22067B"/>
<path transform="translate(828,680)" d="m0 0 6 2 10 7-4 4-9 5-7-1-12-7v-2z" fill="#22067B"/>
<path transform="translate(787,657)" d="m0 0 9 3 6 4 1 4-14 8-16-8v-3z" fill="#3C0C96"/>
<path transform="translate(810,626)" d="m0 0 6 1 11 6 1 3-13 8-7-1-11-7 1-3z" fill="#370B92"/>
<path transform="translate(774,629)" d="m0 0 9 1 10 6-1 3-11 7-4 1-14-8-1-3z" fill="#3C0C97"/>
<path transform="translate(750,591)" d="m0 0 6 1 11 7v2l-7 4-6 4-6-1-13-7 4-4z" fill="#3D0C96"/>
<path transform="translate(714,551)" d="m0 0 3 1-5 5-5 3-1 2 12 6 6 2v-2l4 1-2 4 4 2-1 2-14-8-6-1-10 5h-2l-1 7 8 2 6 3 6 1-1 4-5-1-9-5-6-1-9 4-5 3 1 4-4-2-11-6 2-1 9 4 8-5h2l1-3 2-1-1-3-3-3 7-2h4v-2h3v-2l4-2 1-3h-2v-2l-4-1-7-4 4-1 4 2 8-1v-2z" fill="#8A33D8"/>
<path transform="translate(865,704)" d="m0 0 9 1 9 6-1 4-8 5-9 1-11-7v-4l10-5z" fill="#200578"/>
<path transform="translate(798,640)" d="m0 0 8 3 7 5-5 5-8 5-6-1-11-6v-4l12-6z" fill="#380B92"/>
<path transform="translate(800,598)" d="m0 0 7 1 10 6v3l-14 8-6-2-10-6v-3l11-6z" fill="#3B0C94"/>
<path transform="translate(771,603)" d="m0 0 6 1 10 6-1 4-10 6-5 1-15-8 4-4z" fill="#3C0C96"/>
<path transform="translate(790,615)" d="m0 0h6l9 6 2 4-12 7-7-1-12-6 5-5z" fill="#3C0C96"/>
<path transform="translate(836,663)" d="m0 0 5 1 10 6 2 3-14 9-17-8v-3l13-7z" fill="#24067D"/>
<path transform="translate(1181,452)" d="m0 0h2l-3 11-9 29-8 27-4-1 2-11 1-4 4-15 5-17 6-17z" fill="#4118BB"/>
<path transform="translate(483,232)" d="m0 0 2 2v4l-16 2-21 6-10 5-9 1-3-1v-2l11-6 10-4z" fill="#7F26E3"/>
<path transform="translate(556,528)" d="m0 0h5l-5 4-18 10-34 20-8 3h-9v-2l-3-1 16-4 25-14 13-8 6-1 11-6z" fill="#C26EB1"/>
<path transform="translate(446,341)" d="m0 0 6 2-1 9-5 12-5 9-4 6h-2l-1 4-4 2h-5l-3-2-2-3v-13l2 4 3 5 5 1 5-4 6-10 4-13z" fill="#B251D0"/>
<path transform="translate(1285,814)" d="m0 0 3 1v6l8 2 21 12 6 3h7l6-2 2 4-6 3-8 1-11-4-24-14-6-5v-5z" fill="#CC7AA9"/>
<path transform="translate(605,742)" d="m0 0 7 2 4 2 6 2 15 9 2 7 3 1v2l3 1v2l4 2 3 3-10-4v-2l-5-2-8-4-7-4v-2l-15-10-2-2z" fill="#AA4BD0"/>
<path transform="translate(949,895)" d="m0 0 4 1-1 3-25 14-15 9-19 11-4-2 8-6 25-14 18-11z" fill="#CD7DA9"/>
<path transform="translate(795,176)" d="m0 0h3l-1 5h-2l-3 12h-2l-3 10-4 13-3 5v4l-4 1-1 3-1-4 10-32 4-11 5-5z" fill="#B65ACE"/>
<path transform="translate(506,229)" d="m0 0 5 5 17 5 16 7 9 7 4 5h-3l-1-2-9-4h-3l-5-1-17-8-9-4-4-7z" fill="#7C23E2"/>
<path transform="translate(762,639)" d="m0 0 6 2 10 5 9-5 2 1-2 4-4 2 1 4h-3l-10-5h-6l-12 7 4 4 9 5-1 3-18-10-9-6-9-5 2-3v2l5 2 10 5 5-1 10-6z" fill="#701CE2"/>
<path transform="translate(719,406)" d="m0 0h1l1 5 1 2-3 10-2 9-2 11-5 16-3 11-2-1 1-9 3-10h-3l2-9 10-33z" fill="#B355CE"/>
<path transform="translate(950,709)" d="m0 0 8 1 9 6-5 5-7 4-9-3-6-4 1-4z" fill="#1E0576"/>
<path transform="translate(433,334)" d="m0 0 5 2 2 3-1 9-4 13-5 5-5 1-2-4h-2l-1 5h-1v-11l2 3h2v-3l5-3 3-5 2-8z" fill="#BF64B7"/>
<path transform="translate(941,680)" d="m0 0 7 1 7 5-1 4-8 5h-7l-10-6 2-4z" fill="#1E0576"/>
<path transform="translate(897,700)" d="m0 0 7 1 6 4-1 4-3 4-9 3-10-5-2-5z" fill="#200579"/>
<path transform="translate(225,730)" d="m0 0 2 4-15 9-6 4 1 3 15 9 1 5-6-1-13-8-4-4v-6l9-7 7-4 5-1h3z" fill="#E5C2D6"/>
<path transform="translate(682,594)" d="m0 0 9 3 4 2 6-1 6-3 5-1-5 5-6 2v3l5 2 11 5 5-2 4-1-1 4-4 1 1 5-11-6h-6l-11 5h-2l1 6-12-4-2-1 2-3 10 1 6-2v-2l4-2h3l-5-5v-2l-10-3h-4v-2l-4 1z" fill="#6D1DDF"/>
<path transform="translate(572,510)" d="m0 0h2v3l3 1-8 5-26 15-34 20-12 6-10 2-11-1-12-5-15-9-3-3 6 2 11 6 10 5 8 2h10l13-5 24-14 19-11 23-13 2-1z" fill="#4E1B93"/>
<path transform="translate(838,426)" d="m0 0 6 2 23 13 6 4v6l-4-1-17-9-14-8z" fill="#B959C1"/>
<path transform="translate(1324,792)" d="m0 0h5l1 2-5 1 5 2v1l-10 2-15 8-14 9h-2v3l3 1-2 1-3-3-1-6 16-10 19-10z" fill="#BB67A8"/>
<path transform="translate(1208,724)" d="m0 0 5 2 16 9 5 2h8l7-1 14-8 4-3 6-1-3 3-19 11-8 3h-13l-12-5-11-7 2-1-4-3z" fill="#C872A4"/>
<path transform="translate(1171,398)" d="m0 0 8 1 9 3 1-1h6l1 2-4 1v4 3l-2 9-1 5-2 1v3l-2 7h-2l-2 4-1-2 5-21v-9l-4-2-8-6z" fill="#3815B9"/>
<path transform="translate(1e3 864)" d="m0 0 1 3-1 3-26 15-20 12-5-2 5-4 24-14z" fill="#C56DA9"/>
<path transform="translate(1127,374)" d="m0 0 6 2 27 15 11 6v2l5 2 9 7 1 9-5 21h-2l2-10v-8l-4-13-8-7-21-12-10-7-11-6z" fill="#3C0C98"/>
<path transform="translate(814,456)" d="m0 0 6 2 20 11 5 4v6l-6-2-20-11-6-5-1-3z" fill="#D07A96"/>
<path transform="translate(890,929)" d="m0 0m-1 1m-2 1 5 1v2l-16 9-17 10-18 10-8 2v-2l9-2 2-5 25-14z" fill="#D083AA"/>
<path transform="translate(493,322)" d="m0 0h8l-2 2h-11l3 7v3h2l3 3 9 2v1l-12 3-13-1-8-2 4-2 6-1 2-12-4-2z" fill="#771EE6"/>
<path transform="translate(1231,657)" d="m0 0h12l3 2-1 2-5-1-4-1-2 1 6 1v1l-10 1-14 7-20 12-4 1 1-3 4-1-3-2 10-6 19-11z" fill="#C773A6"/>
<path transform="translate(846,401)" d="m0 0 7 3 22 12 1 1v6l-6-1-18-10-7-5v-5z" fill="#D07A97"/>
<path transform="translate(931,697)" d="m0 0 7 1 6 8v2l-9 4-7-1-7-4 1-4z" fill="#1E0576"/>
<path transform="translate(430,540)" d="m0 0 7 2 9 5 7 1 15 9 8 3 8 2 3 1v2h-13l-12-5-24-14-8-5z" fill="#D07B99"/>
<path transform="translate(418,322)" d="m0 0 8 6 3 3 1 7-2 10-4 3-3-3-2-9-1-1z" fill="#C770A4"/>
<path transform="translate(911,686)" d="m0 0h6l5 5 1 4-8 6-7-1-6-4 1-4z" fill="#1E0576"/>
<path transform="translate(857,365)" d="m0 0 5 1 25 14 3 3v5l-6-2-23-13-5-4z" fill="#FDFDFD"/>
<path transform="translate(858,850)" d="m0 0 2 1-2 3-1 6-11 8-13 6h-10v-1l9-1 4-2 2-4h-2l1-4 15-8z" fill="#43129B"/>
<path transform="translate(449,254)" d="m0 0 3 1-11 7-6 8-3 7-1 3v8l1 5-4-2-3-4-1-4v-12l2 2 4-7h2v-2z" fill="#3D0C98"/>
<path transform="translate(890,716)" d="m0 0 4 1 10 5-2-4 3-1 1 3 24 14 7 1-3 3h-4v2l-9 5-2-1 6-4 1-3-4-2-12-7-17-8z" fill="#3C0D9B"/>
<path transform="translate(557,717)" d="m0 0h8l6 2 14 8-1 2-5-2-4-2 5 6 8 6-2 1-21-12-10-6v-2z" fill="#BF6CB3"/>
<path transform="translate(883,468)" d="m0 0 6 1 18 10 7 5-1 4-5-1-22-12-4-3z" fill="#FDFDFD"/>
<path transform="translate(869,401)" d="m0 0 5 1 20 11 5 4v5l-6-2-20-11-5-4z" fill="#FDFDFD"/>
<path transform="translate(851,333)" d="m0 0 7 1 19 11 2 2-1 5-9-3-16-10-2-2z" fill="#B858C2"/>
<path transform="translate(1330,793)" d="m0 0 6 2 18 10 5 4v3l1 2-5-1-22-13-3-1v-2l-6-1 1-2z" fill="#C168B0"/>
<path transform="translate(1118,753)" d="m0 0 16 8 12 8 4 4 1 4-4 2-3 4h-6l5-4 1-4-7-6-14-8-5-6z" fill="#BF65B6"/>
<path transform="translate(222,760)" d="m0 0 5 2 23 13 4 4-1 3-5-1-24-14-3-3 1-1-3-2z" fill="#D18BB4"/>
<path transform="translate(712,533)" d="m0 0 7 1 10 7-1 3-4 2h-6l-11-6-1-3 2-3z" fill="#4B1B87"/>
<path transform="translate(800,661)" d="m0 0 4 2 15 7-3 2-5-2h-6l-12 7v2l9 5-2 2-27-15 1-2 6 2 9 4 12-7h2l-3-5z" fill="#6C1DDE"/>
<path transform="translate(929,658)" d="m0 0 6 1 11 6v3l-5 4-5-1-11-6-2-3z" fill="#290883"/>
<path transform="translate(432,471)" d="m0 0 5 3v2l-18 10-12 7-1-2-5 2 2-4 27-16z" fill="#C771A5"/>
<path transform="translate(918,371)" d="m0 0 5 1 18 10 4 3v5l-6-1-17-10-4-3z" fill="#FDFDFD"/>
<path transform="translate(779,570)" d="m0 0 8 3 9 6-4 4-6 1-12-7-2-3z" fill="#3A0B94"/>
<path transform="translate(882,438)" d="m0 0 6 1 17 10 5 5-1 3-6-2-19-10-2-2z" fill="#FDFDFD"/>
<path transform="translate(820,610)" d="m0 0h7l9 6 2 3-11 7h-5v-8l-1-5-2-2z" fill="#21067A"/>
<path transform="translate(738,548)" d="m0 0 6 1 11 6v4l-4 2-7-1-12-7v-2z" fill="#461785"/>
<path transform="translate(252,713)" d="m0 0m-2 1h2l1 2 4-1-4 4-23 13-5 1-4 2-3-2 17-10z" fill="#CE80AC"/>
<path transform="translate(909,646)" d="m0 0 9 3 9 5-1 3-4 3-6-1-12-7v-2z" fill="#270781"/>
<path transform="translate(756,559)" d="m0 0 7 1 12 7-1 3-4 3-7-2-11-7 2-4z" fill="#3D0C96"/>
<path transform="translate(851,449)" d="m0 0 5 1 18 10 3 3-1 5-14-7-10-6-1-1z" fill="#FDFDFD"/>
<path transform="translate(425,250)" d="m0 0 9 2 1-2 2 2-7 6h-7l-6 7-6 15-2 4 1-13 4-9 8-10z" fill="#B559D0"/>
<path transform="translate(479,312)" d="m0 0h21l2 3h11v2l-6 1h-27l-11 1 3-2h5l1-3z" fill="#6522CE"/>
<path transform="translate(798,582)" d="m0 0 5 1 12 7 1 2-6 3-7-1-10-6v-3z" fill="#3C0C96"/>
<path transform="translate(831,637)" d="m0 0 9 3 8 6-4 4-5 2 1-6-2-4-4-2-5 1 1 8-9 2-4-3 1-3 10-6z" fill="#3B0B95"/>
<path transform="translate(537,475)" d="m0 0h7l16 10 9 5-2 2-1-1-1 2-5-2-23-13z" fill="#BC60BB"/>
<path transform="translate(474,241)" d="m0 0h20l21 3-3 4h-19l-1 2-3-6v-2h-15z" fill="#B558BD"/>
<path transform="translate(706,450)" d="m0 0h3l-4 20-3 1v9h2v2l-7 1h-8l2-2 9-1-1-10 5-17z" fill="#8229E1"/>
<path transform="translate(264,707)" d="m0 0h13l11 4v2l-11-1h-9l-11 4-5 1 1-4 8-5z" fill="#BC61BB"/>
<path transform="translate(492,415)" d="m0 0h8l2 2-1 7-4 4-6-1-2-3v-6z" fill="#CD769C"/>
<path transform="translate(714,551)" d="m0 0 3 1-5 5-5 3-1 2 12 6 6 2v-2l4 1-2 4 4 2-1 2-14-8-8-1-1-5h-2v-2l-4-1-7-4 4-1 4 2 8-1v-2z" fill="#701FDF"/>
<path transform="translate(535,307)" d="m0 0m-2 1h6l-3 3-14 5-14 3-9 1h-21l-4-2 9-1h30l1-3 18-5z" fill="#7F31CD"/>
<path transform="translate(949,895)" d="m0 0 4 1-1 3-25 14-3 1-2-2 3-3 15-9z" fill="#C771A6"/>
<path transform="translate(535,475)" d="m0 0 2 1 5 4 25 14 13 8 3 3v5l-4 2 1-6-1-2h-3l1 3 2 1-4 1-2-2v-7l-19-10-15-9-4-3z" fill="#6226A6"/>
<path transform="translate(1236,658)" d="m0 0h6l2 2v-1l7 1 10 6 3 5-4 1-15-8-5-2-8-1z" fill="#D392BD"/>
<path transform="translate(1090,812)" d="m0 0v3l-5 6-16 9-5-1v2l-8 4-5 2v-2l26-15z" fill="#C36BAD"/>
<path transform="translate(521,549)" d="m0 0h2v2l-19 11-8 3h-9v-2l-3-1 16-4 6-3 8-2z" fill="#C66FA7"/>
<path transform="translate(857,422)" d="m0 0 12 6 8 6-1 4-5-1-14-8-1-5z" fill="#FDFDFD"/>
<path transform="translate(1096,436)" d="m0 0 1 3-15 49-1 3h-2l1-8 9-28 5-17z" fill="#FDFDFD"/>
<path transform="translate(431,311)" d="m0 0h5l9 4-4 1-3 1-1 5 1 5-2 2-9-5 3-2v-10z" fill="#B959C1"/>
<path transform="translate(667,663)" d="m0 0h7l3 2h-8l-14 5-21 12-17 10-11 7-4 3 2-5 13-8 18-10 15-9 14-6z" fill="#400F96"/>
<path transform="translate(888,354)" d="m0 0 5 1 14 8 2 4-1 1-7-1-13-8z" fill="#FDFDFD"/>
<path transform="translate(876,726)" d="m0 0 5 2 11 7 20 11 7-1-3 3h-5l-15-8-6 1-1-3-9-5-7-1 3-1z" fill="#3C0C97"/>
<path transform="translate(831,451)" d="m0 0 6 2 11 7 2 2-1 4-5-1-13-8-1-5z" fill="#FDFDFD"/>
<path transform="translate(463,408)" d="m0 0 6 1 3 4-1 7-7 1-4-4 1-7z" fill="#CB749F"/>
<path transform="translate(949,671)" d="m0 0 10 1 4 4 2 1-1 3-3 2-5-1-11-6v-3z" fill="#1F0577"/>
<path transform="translate(968,682)" d="m0 0 8 1 8 5v4l-5 1-7-2-7-5v-2z" fill="#1E0576"/>
<path transform="translate(744,629)" d="m0 0 6 2 6 3 7-1v6l-2 2-11-6-9 2-10 5-1 2h-2l2-4 11-7h2z" fill="#7A24E0"/>
<path transform="translate(1149,777)" d="m0 0 1 3-5 5-9 6-7 2h-4v2l-6 4-8 2 3-3 21-12 5-3 5-2z" fill="#C16DB1"/>
<path transform="translate(872,661)" d="m0 0 6 1 10 7-1 3-10 6h-7l-4-2 2-1 7 1 6-3 1-3-1-3-6-2-5-1-10 5v3l-3-1v-3z" fill="#3C0C98"/>
<path transform="translate(402,489)" d="m0 0m5 0m-7 1 2 1h2 2l-1 3-14 8-4 4h-3l-1-3 4-5z" fill="#D68AA2"/>
<path transform="translate(421,276)" d="m0 0 2 1 1 11-5 1v6l-5-5-1-5h2v-5z" fill="#B352CE"/>
<path transform="translate(479,407)" d="m0 0 6 1 1 1v9l-2 2-7-1-1-1v-7z" fill="#CC759E"/>
<path transform="translate(954,619)" d="m0 0 6 2 17 10 19 11 17 10 2 4-4-2-20-12-26-15-11-7z" fill="#3B0D9D"/>
<path transform="translate(707,611)" d="m0 0 6 1 11 7-5 5-10 5 1-5 2-1 1-4-3-6z" fill="#3D0C96"/>
<path transform="translate(793,700)" d="m0 0 9 3 10 7v4l2 1-5-1-16-9-2-4z" fill="#3C0C97"/>
<path transform="translate(872,732)" d="m0 0h8l10 6v4h-6l-4-3-10-3z" fill="#1E0576"/>
<path transform="translate(949,669)" d="m0 0 6 1 1 2h-11v3l6 2 7 4 4-1 3-3-5-2 2-1 6 4-1 3 4-1 5 2-3 1h-5l-5 2v-2h-6l-10-5-5-4v-3z" fill="#3B0EA0"/>
<path transform="translate(682,594)" d="m0 0 9 3 4 2 6-1 6-3 5-1-5 5-6 2v3l5 2 2 1v2l-6-2-3-2v-2l-10-3h-4v-2l-4 1z" fill="#933AD6"/>
<path transform="translate(814,957)" d="m0 0 11 4h8l10-3-1 3-9 2-1 3h-8l-9-3-1-3z" fill="#CE789B"/>
<path transform="translate(828,680)" d="m0 0 6 2 10 7-4 4-4-2-5-4v-2l-10-1 4-3z" fill="#3C0C96"/>
<path transform="translate(705,631)" d="m0 0h7v2l5 2 12 6-1 2-4-1-12-6-6 2-5 3-5-1 3-3 5-3h2z" fill="#711CE5"/>
<path transform="translate(876,686)" d="m0 0 9 2 8 6-2 4-2-1 1-3-9-5h-5l-3 1-1 5-2 4-2 1-6-4 4-4z" fill="#3C0C98"/>
<path transform="translate(905,421)" d="m0 0 5 1 9 6v5h-4l-10-6-1-5z" fill="#D07A97"/>
<path transform="translate(726,575)" d="m0 0 8 2 8 4 4 1-1 3-6-2-6-3-5 1-12 6-3-2 11-7z" fill="#721DE4"/>
<path transform="translate(864,738)" d="m0 0 4 1 11 5-1 3-7 1-9-5-2-3z" fill="#1E0576"/>
<path transform="translate(1269,724)" d="m0 0 4 1-20 12-10 4h-9l2-3 13-2 14-8 4-3z" fill="#C570A8"/>
<path transform="translate(427,307)" d="m0 0 5 2 2 2-3 1v11l-2 1-5-2-1-5z" fill="#C16FB1"/>
<path transform="translate(477,158)" d="m0 0h1v14l1 9-5 1-2-3v-7z" fill="#8029E3"/>
<path transform="translate(849,389)" d="m0 0 6 2 8 5v5l-2 1-12-7z" fill="#FDFDFD"/>
<path transform="translate(848,344)" d="m0 0 5 2 8 6 1 3-5 1-10-6-1-3z" fill="#FDFDFD"/>
<path transform="translate(411,289)" d="m0 0 4 5 7 8-1 3-6 2-5-12v-5z" fill="#D27C95"/>
<path transform="translate(716,593)" d="m0 0 10 4 7 4-2 4-7 4-2-1 1-5-1-5-3-1v-2h-5z" fill="#3D0C96"/>
<path transform="translate(312,770)" d="m0 0 1 2-25 15-5 2h-8l1-2 9-3 6-3 7-3z" fill="#C670A7"/>
<path transform="translate(855,950)" d="m0 0 6 1-5 4-17 9-6 1v-2l9-2 2-5z" fill="#DBA0BC"/>
<path transform="translate(886,750)" d="m0 0h7l8 5-2 4-10-1-3-6z" fill="#210579"/>
<path transform="translate(729,579)" d="m0 0 6 1 11 6-1 4-4 3-2-1-2-5-3-4-6-2z" fill="#3D0C96"/>
<path transform="translate(1e3 864)" d="m0 0 1 3-1 3-12 7-1-2-7 4-4-1 23-13z" fill="#C36BAD"/>
<path transform="translate(1267,722)" d="m0 0 2 1-9 8-12 6-6 1h-8v-1l10-2 17-9z" fill="#B65ABD"/>
<path transform="translate(252,713)" d="m0 0m-2 1h2l1 2 4-1-4 4-12 7-4-1 6-7z" fill="#D79BBF"/>
<path transform="translate(1092,712)" d="m0 0 2 1-4 5-14 7-12 7-2-1 8-6 16-9z" fill="#FBFAFB"/>
<path transform="translate(897,697)" d="m0 0 6 2 10 6v3l-4 3-2-1 2-2v-3l-8-4-6 1-8 4v4l-5-2 1-3 13-7z" fill="#3C0C98"/>
<path transform="translate(922,490)" d="m0 0 5 1 8 5 1 3-1 2-5-1-9-6z" fill="#FDFDFD"/>
<path transform="translate(485,233)" d="m0 0 16 1 9 3v2l-25-2z" fill="#C770A4"/>
<path transform="translate(1140,767)" d="m0 0 5 1 5 5 1 4-4 2-3 4h-6l5-4 1-4-3-3z" fill="#BA5EBD"/>
<path transform="translate(910,684)" d="m0 0m-1 1m-3 1h3l-2 4-4 3v3l7 4h7l-3 3-4 1-8-5-4-5 1-3z" fill="#3C0C98"/>
<path transform="translate(1279,677)" d="m0 0 5 2 4 3-1 2 12 7-1 2-5-2-16-9 2-1-1-3z" fill="#C36BAD"/>
<path transform="translate(1330,793)" d="m0 0 6 2 9 5-1 3-5-1-9-3v-2l-6-1 1-2z" fill="#C778B0"/>
<path transform="translate(734,599)" d="m0 0 8 5 8 4-1 3-10-5-6 1-8 4 2-5 5-3v-3z" fill="#6F1DE1"/>
<path transform="translate(941,678)" d="m0 0 9 2 3 2v2l-5-2-7-1-10 5-1 3 5 3 1 3h-5v-4l-5-1-2-2 9-6z" fill="#3B0E9E"/>
<path transform="translate(871,705)" d="m0 0 5 1 7 5-1 4-8 5-3-1 3-2-1-10z" fill="#3C0C96"/>
<path transform="translate(805,669)" d="m0 0h6l2 2h-7v3l1 3-8 1-2-1-2 4-3-2 1-3z" fill="#3B0C99"/>
<path transform="translate(731,387)" d="m0 0h1v9l-2 7-2 4-1 7-5 9-1-3z" fill="#260C6C"/>
<path transform="translate(800,661)" d="m0 0 4 2 15 7-3 2-5-2h-6l-5 3h-2l1-4 4-1-3-5z" fill="#701CE2"/>
<path transform="translate(632,587)" d="m0 0 14 7 18 11-3 1-13-8-3-2-7 1-6 3-1-2 7-4 1-2-5-2-2-1z" fill="#BD60BA"/>
<path transform="translate(831,637)" d="m0 0 9 3 8 6-4 4-5 2 1-6-2-4-4-2-7 1zm-6 4 2 1z" fill="#3C0C98"/>
<path transform="translate(572,510)" d="m0 0h2v3l3 1-8 5-26 15-3 1v-2l32-18z" fill="#4E1A97"/>
<path transform="translate(965,885)" d="m0 0 2 4-5 4-7 4-5-2 5-4z" fill="#C46CAB"/>
<path transform="translate(835,439)" d="m0 0 6 2 6 5-1 4-6-2-6-4z" fill="#FDFDFD"/>
<path transform="translate(416,320)" d="m0 0 2 1 1 17 2 3v7l-2 6h-1l-2-18z" fill="#C16BB1"/>
<path transform="translate(646,849)" d="m0 0 9 4 4 3-1 4-5-1-7-4-1-4z" fill="#1D0475"/>
<path transform="translate(210,753)" d="m0 0 5 2 7 4 1 5-6-1-10-6z" fill="#E2B2C6"/>
<path transform="translate(1285,814)" d="m0 0 3 1v6l8 2 1 3-4 1-7-3-3-3v-5z" fill="#E9CBD8"/>
<path transform="translate(537,475)" d="m0 0h7l10 7v2l-10-2-8-5z" fill="#BA5DBB"/>
<path transform="translate(816,630)" d="m0 0 7 2 3 2-1 4-5 3h-3z" fill="#1F0577"/>
<path transform="translate(854,650)" d="m0 0 9 3 6 5-3 3-5 3-2-1 2-6-4-3v-2l-3-1z" fill="#3C0C98"/>
<path transform="translate(538,534)" d="m0 0h2v2l-14 8-17 10-3 1 1-3 18-10z" fill="#49198D"/>
<path transform="translate(454,246)" d="m0 0h6l-3 2-14 7-4 3-3-1 4-5 10-5z" fill="#1E0A64"/>
<path transform="translate(891,673)" d="m0 0 7 1 9 5 2 3-7 5-3-1h2v-8l-9-3z" fill="#3C0C96"/>
<path transform="translate(1049,416)" d="m0 0 5 1 9 6 1 4-6-2-9-6z" fill="#FDFDFD"/>
<path transform="translate(842,414)" d="m0 0 5 1 5 4v5l-5-1-6-4z" fill="#FDFDFD"/>
<path transform="translate(1100,806)" d="m0 0 4 1-4 5-12 7-2-1 6-7z" fill="#C773AE"/>
<path transform="translate(222,760)" d="m0 0 5 2 9 5-4 2h-4l-7-4 1-2-3-2z" fill="#D285A5"/>
<path transform="translate(846,727)" d="m0 0 5 1 8 3v3l-5 2h-4v-3h-2v-5z" fill="#1F0577"/>
<path transform="translate(715,589)" d="m0 0 16 8 3 3-7-1-10-5-5 1-2-2z" fill="#7221DE"/>
<path transform="translate(430,540)" d="m0 0 7 2 12 6v2l6 2 2 3h-3l-18-10-6-4z" fill="#C873A5"/>
<path transform="translate(1346,829)" d="m0 0 5 3-4 3-7 4-4-2 5-5z" fill="#C36DA8"/>
<path transform="translate(1025,751)" d="m0 0m-1 1m-2 1h2l-1 3-18 10-5 3-2-1 8-6z" fill="#FDFDFD"/>
<path transform="translate(1079,732)" d="m0 0h5l8 6-1 3-5-1-7-4z" fill="#B85AC0"/>
<path transform="translate(559,524)" d="m0 0h6l-1 2h-2v2l-7 2-14 7-1-2z" fill="#B959C1"/>
<path transform="translate(1007,391)" d="m0 0 5 2 8 5v4l-5-2-8-4-1-4z" fill="#FDFDFD"/>
<path transform="translate(1295,807)" d="m0 0 1 2-2-1zm-3 2 2 1-1 2 6-1-3 3-5 3h-2v3l3 1-2 1-3-3-1-6z" fill="#B36699"/>
<path transform="translate(1236,658)" d="m0 0h6l2 2 2-1 8 4-1 2h-6l-7-3-8-1z" fill="#DBA5C7"/>
<path transform="translate(1358,809)" d="m0 0 4 1 5 3 1 7h-4l-6-6v-2z" fill="#B458BE"/>
<path transform="translate(783,633)" d="m0 0 1 2 7 2-2 4-3 2-4-1-1-7z" fill="#210579"/>
<path transform="translate(1028,404)" d="m0 0 5 1 9 5v4l-6-2-9-6z" fill="#FDFDFD"/>
<path transform="translate(925,668)" d="m0 0 6 2 8 5v2l-7 5-3-1 3-6-2-3-5-3z" fill="#3C0D9B"/>
<path transform="translate(719,623)" d="m0 0h3v2l-12 7-6-1-4-2v-2l5 1 4 1z" fill="#8D35D8"/>
<path transform="translate(799,620)" d="m0 0 7 2v4l-5 3h-4z" fill="#260780"/>
<path transform="translate(439,262)" d="m0 0v3l-4 5-3 7-1 3v8l1 5-4-2 1-14 2-6 7-8z" fill="#3815B9"/>
<path transform="translate(565,718)" d="m0 0h5l15 9-1 2-5-2-10-5z" fill="#C065B5"/>
<path transform="translate(440,660)" d="m0 0 3 1-5 5-11 5h-3v-2z" fill="#1C095E"/>
<path transform="translate(697,613)" d="m0 0 3 1-6 3h-2l1 6-12-4-2-1 2-3 10 1z" fill="#8932D8"/>
<path transform="translate(745,338)" d="m0 0 2 1-8 26h-1v-7l3-11z" fill="#C269B0"/>
<path transform="translate(901,654)" d="m0 0 6 2 10 6v4h-2v-3l-4-2-5-2h-10z" fill="#3C0C96"/>
<path transform="translate(790,639)" d="m0 0m-1 1m-2 1 2 1-2 4-4 2 1 4h-3l-5-3v-2l10-5z" fill="#6E1DE1"/>
<path transform="translate(798,685)" d="m0 0 5 2v4l-11 7-6 2-2-2 11-4 5-6z" fill="#3C0D99"/>
<path transform="translate(419,672)" d="m0 0 3 1-13 8-8 5-2-1 4-4z" fill="#1F0A5F"/>
<path transform="translate(906,920)" d="m0 0 3 1-4 3-9 5 1 2-5 2-3-2 8-6z" fill="#C770A4"/>
<path transform="translate(1304,802)" d="m0 0m-2 1 2 1-1 2h2l-1 3-3 2-8 1 1-3h2l1-3z" fill="#CA789E"/>
<path transform="translate(571,795)" d="m0 0 4 2 9 1v6h-6l-4-5-3-2z" fill="#0D0352"/>
<path transform="translate(676,613)" d="m0 0 5 2 1 2-4 4-8 4-5 3-3-1 8-5 4-2 3-3z" fill="#AF52C5"/>
<path transform="translate(480,317)" d="m0 0 23 1-4 2h-21l-4-2z" fill="#933AD2"/>
<path transform="translate(437,313)" d="m0 0 5 1 3 2h-6l-2 6 1 5-4-2-1-6 1-5z" fill="#B353CD"/>
<path transform="translate(744,564)" d="m0 0 6 2 6 4v4l-4 2v-2l-3-3-2-5-3-1z" fill="#3D0C96"/>
<path transform="translate(474,242)" d="m0 0h14v3l-15 1-1-3z" fill="#210774"/>
<path transform="translate(1017,857)" d="m0 0m-2 1h2l-2 4-12 7h-2l2-6 9-3h3z" fill="#C770A5"/>
<path transform="translate(1072,823)" d="m0 0h2v2l-5 5-5-1v2l-8 4-5 2v-2z" fill="#BE65B7"/>
<path transform="translate(446,544)" d="m0 0 6 2 22 12-1 2-14-7-13-8z" fill="#4D1D88"/>
<path transform="translate(815,695)" d="m0 0 6 2 11 8v2l-5 2-3-7-8-5z" fill="#3C0C97"/>
<path transform="translate(960,674)" d="m0 0 6 2 2 3-1 2 4-1 5 2-3 1h-5l-5 2v-2h-2l1-3 3-3-5-2z" fill="#3A10A6"/>
<path transform="translate(705,566)" d="m0 0 3 1-3 3-11 6-4 1-3-3 7-2h4v-2h3v-2z" fill="#943BD4"/>
<path transform="translate(708,564)" d="m0 0 6 2 10 4v-2l4 1-2 4 4 2-1 2-21-12z" fill="#9E41D5"/>
<path transform="translate(434,271)" d="m0 0 1 2-1 3v16l-2-1v-3h-2v-8l3-8z" fill="#661ED6"/>
<path transform="translate(1133,787)" d="m0 0h2v2l-4 1v2l-6 1v2l-6 4-8 2 3-3z" fill="#BD63BA"/>
<path transform="translate(835,708)" d="m0 0 6 1 6 4-2 1-5-3h-7l-3 3v1l-10 1 3-2z" fill="#3C0D9B"/>
<path transform="translate(853,383)" d="m0 0 12 6-3 1-5-1v3l-6-2-2-2 3-1 2 1z" fill="#552092"/>
<path transform="translate(688,583)" d="m0 0 2 1-9 6 1 4-4-2-11-6 2-1 9 4z" fill="#BA5BBF"/>
<path transform="translate(979,699)" d="m0 0 5 1 6 5-5 5-9 4 1-3 9-5v-2l-6-3z" fill="#3B0FA2"/>
<path transform="translate(682,594)" d="m0 0 9 3 8 3-3 2-10-2-1-2-4 1z" fill="#7526D8"/>
<path transform="translate(396,498)" d="m0 0h3l-1 3-6 4-3 5 2 1-4-1v-5l7-6z" fill="#290E66"/>
<path transform="translate(535,475)" d="m0 0 2 1 5 4 14 8v2l-6-2-11-7-4-3z" fill="#4E1C8F"/>
<path transform="translate(931,905)" d="m0 0 2 1 1 3-8 5-4-2 3-3z" fill="#C770A4"/>
<path transform="translate(1298,827)" d="m0 0 11 6 1 2-2 2-12-7 1-2z" fill="#C9769C"/>
<path transform="translate(862,706)" d="m0 0 2 1-4 3v5l2 3-5-2-4-3 1-3z" fill="#3C0C96"/>
<path transform="translate(703,585)" d="m0 0 5 2 5 3-1 3-5 2z" fill="#3D0C96"/>
<path transform="translate(852,202)" d="m0 0 5 1 19 11-4 1-7-4-6-4-4-1z" fill="#D699C0"/>
<path transform="translate(869,942)" d="m0 0 1 2-2 1-2 4-3 2h-6l-1-2z" fill="#CB749F"/>
<path transform="translate(695,574)" d="m0 0 2 1-1 5h2v2l-5 2-5-1 3-3v-3z" fill="#7C29DB"/>
<path transform="translate(286,783)" d="m0 0h5l1 2-9 4h-8l1-2 9-3z" fill="#C770A5"/>
<path transform="translate(880,683)" d="m0 0 4 2 12 2 3 1-5 3-5-1-8-5z" fill="#3C0C99"/>
<path transform="translate(1233,657)" d="m0 0h10l3 2-1 2-5-1-4-1-2 1 6 1v1l-12 1 3-5z" fill="#AE5CAC"/>
<path transform="translate(521,546)" d="m0 0 4 1-7 5-6 3h-5l4-3z" fill="#BF67B5"/>
<path transform="translate(428,310)" d="m0 0h6l-3 2v11l-2 1-5-2 3-2z" fill="#BF64B7"/>
<path transform="translate(942,708)" d="m0 0h6l-4 4-5 2h-3l-1 3-4-1v-2l10-3z" fill="#3814B5"/>
<path transform="translate(846,692)" d="m0 0 8 1 9 7v3l-4 1-2-6-7-4h-6z" fill="#3C0C97"/>
<path transform="translate(976,683)" d="m0 0 4 1 6 4v5l-1 1h-8l-3-2h10v-4l-5-2z" fill="#3B0EA0"/>
<path transform="translate(455,253)" d="m0 0 3 1-10 5-10 9-2 2 1-4 4-5 11-7z" fill="#651FD4"/>
<path transform="translate(1296,824)" d="m0 0 5 2 7 4 1 3-5-2-5-3-5 1-3-3 5-1z" fill="#D7A4C6"/>
<path transform="translate(1367,814)" d="m0 0 3 2v5l-4 3-7-1 3-3 5-1z" fill="#C671AB"/>
<path transform="translate(230,768)" d="m0 0h8l3 2-1 4-5-1-4-2z" fill="#DCA1BA"/>
<path transform="translate(709,637)" d="m0 0 5 1v4l-2 1h-6v-2l-2-1z" fill="#4B1D7E"/>
<path transform="translate(1308,831)" d="m0 0 5 2 5 5-5 2-4-3z" fill="#D78DA6"/>
<path transform="translate(814,672)" d="m0 0 5 2 5 5-5 3-2-1-2-7z" fill="#3C0C97"/>
<path transform="translate(565,490)" d="m0 0 9 3 2 2h-3l1 3-6-2-3-2z" fill="#BB5EBD"/>
<path transform="translate(807,682)" d="m0 0h10l-4 3-3 2-5-1-2-2z" fill="#3C0D9A"/>
<path transform="translate(683,598)" d="m0 0h2v2l-10 5-5 2 1 3-5-2 5-4z" fill="#BA5CC0"/>
<path transform="translate(405,720)" d="m0 0 6 1 12 7-4 1-14-8z" fill="#280E65"/>
<path transform="translate(928,685)" d="m0 0 3 1-1 3 5 3 1 3h-5v-4l-5-1-2-2z" fill="#3A10A5"/>
<path transform="translate(857,674)" d="m0 0 13 5 3 3-1 2-8-5-9-1-4-1z" fill="#3C0C96"/>
<path transform="translate(730,642)" d="m0 0 1 2 5 2 8 4-1 3-14-8z" fill="#6D1DDF"/>
<path transform="translate(750,332)" d="m0 0v3l-2 8-3 9h-1l1-9 3-10z" fill="#230C67"/>
<path transform="translate(755,310)" d="m0 0h2l-2 11-2 3-2 7-2 1 3-12z" fill="#301173"/>
<path transform="translate(1269,724)" d="m0 0 4 1-15 9h-2v-2l9-6z" fill="#C46FAB"/>
<path transform="translate(564,495)" d="m0 0 10 5-2 4-4-2-4-5z" fill="#0D0352"/>
<path transform="translate(296,718)" d="m0 0 5 2 11 7-1 2-15-9z" fill="#C46FAB"/>
<path transform="translate(1078,720)" d="m0 0m-1 1m-1 1m-2 1h2l-1 3-11 6-2-1 8-6z" fill="#FDFDFD"/>
<path transform="translate(391,710)" d="m0 0 5 2 7 5v2l-5-2-7-4z" fill="#260D64"/>
<path transform="translate(269,706)" d="m0 0h9l10 3 2 1-1 3-1-2-9-2-10-2z" fill="#CD81B4"/>
<path transform="translate(618,688)" d="m0 0h2l-1 3-12 7-5 4 2-5 13-8z" fill="#44109E"/>
<path transform="translate(545,534)" d="m0 0m-1 1m-6 1h6l-2 4-8 4 2-4v-3z" fill="#C06AB3"/>
<path transform="translate(890,929)" d="m0 0m-1 1m-1 1 4 1v2l-10 6h-2l2-4 4-1z" fill="#D389AB"/>
<path transform="translate(896,698)" d="m0 0m-1 1m-3 1h3v2l-8 4v4l-5-2 1-3z" fill="#3D0C96"/>
<path transform="translate(1106,694)" d="m0 0 2 1-4 8-4 4v-3l3-7z" fill="#471ABE"/>
<path transform="translate(525,540)" d="m0 0 2 1-9 6-6 3-2-1 10-7z" fill="#0E0356"/>
<path transform="translate(547,482)" d="m0 0 5 1 2 1 1-2 5 4-2 2-5-1-6-4z" fill="#BE64B8"/>
<path transform="translate(833,191)" d="m0 0 5 1 10 6-3 2-3-1v-2l-5-2-4-2z" fill="#D698BF"/>
<path transform="translate(909,921)" d="m0 0 2 1-9 6-4 2-3-1 8-5h2l1-2z" fill="#CE7899"/>
<path transform="translate(1355,824)" d="m0 0h2l1 3-6 3v2l-5-2 4-4z" fill="#BB5EBC"/>
<path transform="translate(1131,791)" d="m0 0 3 1-15 9-2-2 6-4h2v-2z" fill="#C670A6"/>
<path transform="translate(859,736)" d="m0 0 2 4 7 7-5-2-6-3-1-4z" fill="#3B0FA2"/>
<path transform="translate(784,677)" d="m0 0 5 2 9 5-2 1-4-2h-6l-2-3z" fill="#3C0D9B"/>
<path transform="translate(846,675)" d="m0 0 2 1-10 6-4-3 6-3z" fill="#3C0C99"/>
<path transform="translate(721,417)" d="m0 0 1 3-5 17h-1v-8l2-6 2-5z" fill="#B959C2"/>
<path transform="translate(479,312)" d="m0 0h5l1 1 9 1v1l-6 1h-8z" fill="#350A8F"/>
<path transform="translate(1347,807)" d="m0 0h5l8 6-4 1-9-6z" fill="#BA64B0"/>
<path transform="translate(819,664)" d="m0 0 7 1-3 3-4 2-5-1z" fill="#3C0C98"/>
<path transform="translate(731,387)" d="m0 0h1v9l-2 7-3 1 2-10z" fill="#280D6F"/>
<path transform="translate(549,263)" d="m0 0 2 3 1 9-2 1-3-8 1-3z" fill="#C067B9"/>
<path transform="translate(1336,835)" d="m0 0m-2 1 4 2v2l-7 3v-3l1-3z" fill="#D9A7CA"/>
<path transform="translate(1335,800)" d="m0 0 6 1 3 1h3v3l2 2-6-1-8-5z" fill="#C66EA8"/>
<path transform="translate(289,780)" d="m0 0 1 3-10 4h-9v-1l12-3z" fill="#BD63B8"/>
<path transform="translate(916,670)" d="m0 0 2 1-6 4h-2v3l5 2-2 1-6-4 1-3z" fill="#3C0D9A"/>
<path transform="translate(432,471)" d="m0 0 5 3v2l-6 3h-2v-2h2v-5z" fill="#CA72A2"/>
<path transform="translate(718,436)" d="m0 0 1 2-5 14h-1l1-9 2-6z" fill="#230B69"/>
<path transform="translate(790,193)" d="m0 0 1 3-5 16-2-1 2-8z" fill="#B959C2"/>
<path transform="translate(950,680)" d="m0 0 5 1 8 2-2 4-4-1v-2l-5-2z" fill="#751CE9"/>
<path transform="translate(1246,659)" d="m0 0 5 1 7 4-2 1-1 2-6-1v-2h4l-7-4z" fill="#BA64AE"/>
<path transform="translate(659,604)" d="m0 0 10 2-3 2h-7l-5 3-2-1z" fill="#A549CA"/>
<path transform="translate(733,578)" d="m0 0 5 1 6 2 2 1-1 3-6-2-6-3z" fill="#8B30DD"/>
<path transform="translate(714,551)" d="m0 0 3 1-5 5-5 2-1-3h3v-2z" fill="#7D2ADA"/>
<path transform="translate(535,307)" d="m0 0m-2 1h6l-3 3-9 3-2-2z" fill="#772BD0"/>
<path transform="translate(1066,828)" d="m0 0 2 1v2l-11 6-2-1 5-4 4-1v-2z" fill="#CB7AAA"/>
<path transform="translate(652,609)" d="m0 0m-2 1h2l-1 3-9 5h-2l1-3z" fill="#BE61B8"/>
<path transform="translate(703,607)" d="m0 0 7 1v2l-7 3-3 1-3-2 4-2h3z" fill="#7021DC"/>
<path transform="translate(756,573)" d="m0 0m-2 1 2 1v2l-8 5-3-1 3-3z" fill="#7A25DE"/>
<path transform="translate(521,549)" d="m0 0h2v2l-14 8-2-1 8-6z" fill="#C770A5"/>
<path transform="translate(417,484)" d="m0 0h2l-1 3-12 6 2-4z" fill="#D07A97"/>
<path transform="translate(700,479)" d="m0 0 4 1v2l-7 1h-8l2-2z" fill="#6D1FCE"/>
<path transform="translate(797,188)" d="m0 0m-4 1 2 3-5 11-1-4z" fill="#2D0E79"/>
<path transform="translate(902,698)" d="m0 0 8 2h7l-3 3-4 1-8-5z" fill="#3C10A9"/>
<path transform="translate(394,686)" d="m0 0 4 1-6 4h-2v2l-4 1 1-4z" fill="#1E0A5E"/>
<path transform="translate(1231,657)" d="m0 0 2 1zm-3 1h3l-1 3-6 3-4-1z" fill="#C36DAD"/>
<path transform="translate(698,639)" d="m0 0 1 3-7 3h-3v-2h3v-2z" fill="#9F42D4"/>
<path transform="translate(1017,855)" d="m0 0 3 1-5 2v2l-7 3-3-1z" fill="#BF66B5"/>
<path transform="translate(1143,773)" d="m0 0 3 1v7l-2 2h-6l5-4 1-4z" fill="#8539BE"/>
<path transform="translate(704,539)" d="m0 0 5 1 11 6v2l-4-1-10-6z" fill="#B759C2"/>
<path transform="translate(424,482)" d="m0 0 2 1-2 3-8 4-4-1z" fill="#2F116F"/>
<path transform="translate(295,714)" d="m0 0 5 2 4 3-5 1-5-1z" fill="#C169B1"/>
<path transform="translate(797,583)" d="m0 0 2 1-1 2 1 4-5-1-2-3z" fill="#26067E"/>
<path transform="translate(784,212)" d="m0 0 1 4-3 8-3-1 2-4z" fill="#BA5CBF"/>
<path transform="translate(824,185)" d="m0 0 5 2 4 2v2l-4 1-4-4z" fill="#DFAFCB"/>
<path transform="translate(989,871)" d="m0 0 2 1-5 4-5 3-4-1z" fill="#BD65B8"/>
<path transform="translate(1335,797)" d="m0 0 10 3-1 3-5-1-4-2z" fill="#CD89BE"/>
<path transform="translate(506,783)" d="m0 0 5 2 9 5-4 1-10-6z" fill="#EFD4DE"/>
<path transform="translate(222,760)" d="m0 0 5 2-2 4-4-1 1-2-3-2z" fill="#D792AC"/>
<path transform="translate(808,588)" d="m0 0 6 1 2 3-7 1z" fill="#220679"/>
<path transform="translate(693,555)" d="m0 0 6 1 5 2 1 4-7-3z" fill="#8331D3"/>
<path transform="translate(819,457)" d="m0 0 6 1 8 6-2 1-12-7z" fill="#4F1D8D"/>
<path transform="translate(770,267)" d="m0 0 1 3-2 7-4 3 2-9z" fill="#240C67"/>
<path transform="translate(478,157)" d="m0 0" fill="#FDFDFD"/>
</svg>
