<?xml version="1.0" encoding="UTF-8"?>
<svg version="1.1" viewBox="0 0 2000 2000" width="1280" height="1280" xmlns="http://www.w3.org/2000/svg">
<path transform="translate(378,862)" d="m0 0h24l14 3 12 5 13 8 12 11 8 10 6 10 4 12v12l-3 19v7l5 12v8l-3 8-4 5-7 4-10 2-7 14-11 12-9 7-4 2 2 5 1 8 14 3 36 10 14 6 9 8 5 10 2 12v57l-1 5-10 2h-4v38l10 2 1 2v20l-6 10-4 1h-192l-7-2-5-9-1-3v-15l2-4 8-3 1-2v-34l-12-2-2-2-1-5v-54l3-16 6-10 7-6 12-5 17-5 22-6 12-3 4-12-11-8-9-9-7-11-4-9-9-2-6-5-4-6-1-4v-11l2-5-1-7-3-13-1-16 2-11 4-10 9-13 9-10 13-10 15-8 12-3zm37 62-7 7-8 10-10 8-12 6-14 4-11 2-11 1-2 1v25l4 12 6 9 5 6 10 7 9 4 9 2h12l12-3 12-6 10-9 6-10 4-12 1-9-2-16-7-21-7-13-5-5zm36 40v19l1 2 4-1 5-6-1-7-3-5zm-127 3-2 5v7l3 4 3-1v-12l-1-3zm82 70-13 2-21-1-1 8 3 5 11 7 4 3 6-2 11-8 2-3v-10z" fill="#A2B9F5"/>
<path transform="translate(307,1092)" d="m0 0h103l9 1 53-1 1 1v83l-4 2-2-4-2-10-4-5-5 2-3 8-6 2h-2l-1 3-5 1-8 4-9 2-8 2 1 2 16 3h22l7 2 9-3 2 3h-2v3l-5 1-6 1-4 1h-129l-4-2 1-4 9-3 16-2h8l2-1v-3l-6-4-18-14-3-3v-2l-5-2h-7v9l-2 13v10l3 3v2l-9 4-3-1z" fill="#FDFDFD"/>
<path transform="translate(386,873)" d="m0 0 17 1 11 3 10 4 14 10 10 10 8 13 2 5v18l-3 14-1 1h-7l-3-5-6-15-6-10-5-5-5-3h-10l-7 3-10 13-8 8-10 6-19 5-21 2-8 2h-6l-4-14v-15l4-11 10-14 12-12 12-7 14-5z" fill="#FEFEFE"/>
<path transform="translate(806,954)" d="m0 0 5 1 5 12 12 37 8 30 1 3h2l1-10 9-30 14-41 1-1h29v92l-2 1h-21l-1-1-1-59-12 36-8 22-2 2h-16l-4-4-7-20-13-38v61l-1 1h-18l-5-1v-92z" fill="#FCFCFD"/>
<path transform="translate(1627,979)" d="m0 0h10l7 4 5 8 1 3v10l-1 3h2l3-10 6-9 5-5 5-3 4-1h10l7 3 5 5 3 8 1 11v41l-2 1h-18l-2-1-1-39-3-5-8-1-7 2-4 8-1 11-1 24-2 1h-18l-1-1-1-36-3-7-3-2-9 1-5 5-3 6-1 33-4 1h-12l-6-1v-66h22l-1 25 3-10 6-9 7-6z" fill="#FBFBFD"/>
<path transform="translate(1194,979)" d="m0 0h10l6 3 6 8 1 4v14h2l1-8 6-11 5-5 6-4 4-1h11l8 4 4 7 2 5 1 6v46l-1 1h-19l-2-1-1-39-3-5-8-1-7 2-2 4-2 5-1 7-1 27-6 1h-13l-2-1-1-36-2-8-9-1-8 4-4 8-1 33-5 1h-16l-1-1v-65l1-1h21l-1 22-1 3h2l3-12 6-8 8-6z" fill="#FCFCFD"/>
<path transform="translate(649,908)" d="m0 0 14 1 1 1v321h-16v-322z" fill="#FBFBFD"/>
<path transform="translate(1405,954)" d="m0 0h21l1 1v91l-6 2-17-1 1-8 1-6-9 11-6 4-6 2h-11l-8-3-8-6-6-10-3-11 1-17 4-11 6-7 10-5 4-1h9l9 3 8 7 4 6 1 4zm-24 46-8 4-3 5-1 7 3 7 4 4 7 2h7l8-3 6-8v-7l-4-6-6-4-3-1z" fill="#FBFCFD"/>
<path transform="translate(986,953)" d="m0 0h20l1 1v38l-2 15h2l1-8 6-11 7-6 7-3h12l9 4 5 6 4 11 1 24v23l-3 1h-17l-2-1-1-35-3-7-6-3-9 1-5 3-5 8-1 32-6 2-16-1v-93z" fill="#FBFCFD"/>
<path transform="translate(1738,979)" d="m0 0h13l12 3 8 5 6 10 1 4 1 26 7 2v17l-5 3-11 1-5-2-4-5-2-13v-4h-2l-1 7-7 9-9 6-7 2h-12l-8-4-5-6-2-5v-7l3-6 6-5 9-3v-3l-9-1-3-3v-8l4-9 7-6 9-4zm-1 21-6 4-4 7v2l29-1 1-4-4-6-3-2zm4 16-12 4-1 1v5l5 4h10l9-4 4-4v-6z" fill="#FBFCFD"/>
<path transform="translate(1097,979)" d="m0 0h14l11 3 8 5 5 8 2 7 1 25 6 1 1 1v17l-5 3-4 1h-8l-5-3-3-4-1-3-1-13-5 10-7 7-10 5-5 1h-10l-8-3-6-7-2-5v-8l4-6 5-4 9-4-2-2-9-2-2-7 3-9 6-7 12-6zm3 20-6 2-6 5-3 7 31-1-1-7-6-5zm0 17-11 3-2 2v5l5 4h10l8-3 6-8-1-3z" fill="#FBFCFD"/>
<path transform="translate(932,979)" d="m0 0h16l13 4 8 6 5 7 3 9 1 10-2 12-5 10-9 8-10 4-4 1h-18l-10-4-8-6-5-6-4-9-1-4v-13l3-10 7-10 9-6zm2 21-8 4-3 5v10l4 6 5 3 4 1h8l8-4 4-4 1-3v-7l-3-6-6-4-3-1z" fill="#FCFCFD"/>
<path transform="translate(1054,1127)" d="m0 0 20 1 8 3 6 7 1 3v10l-4 6-5 3-4 2 10 4 6 7 1 4v7l-3 7-7 6-6 2-15 1h-34l-1-1v-70l1-1zm-7 18v14l2 1 18-1 4-4v-7l-3-2-5-1zm1 21-2 7v7l1 2h22l5-3 1-1v-6l-2-4-2-1z" fill="#FAFBFD"/>
<path transform="translate(1304,979)" d="m0 0h15l10 3 8 6 5 6 2 6v14l-1 1-48 1 3 8 6 4 4 1h7l8-3 4-5 9 3 8 5-4 8-9 8-10 4-4 1h-16l-12-5-6-5-6-10-3-10v-11l3-10 5-8 8-7 9-4zm4 19-8 3-5 6v4h28l1-5-5-6-6-2z" fill="#FBFCFD"/>
<path transform="translate(1536,979)" d="m0 0h12l12 3 9 6 6 8 1 4v8l-5 2-12 1-3-4-2-5-5-2h-13l-4 3v5l10 3 15 2 11 4 6 4 3 6-1 10-5 6-10 5-10 2h-12l-12-3-8-4-7-8-2-5v-10l4-2 13-1 4 8 5 3h16l3-1 1-4-4-4-26-6-10-5-4-6v-7l4-8 5-4 8-3z" fill="#FBFBFD"/>
<path transform="translate(1270,1128)" d="m0 0h33l3 8 20 61v2l-2 1h-12l-7-1-6-18-1-1h-23l-6 19-7 1-15-1 3-10 14-44zm15 8-6 25-2 11h19l-1-8-7-27z" fill="#FBFCFD"/>
<path transform="translate(1475,955)" d="m0 0h25v92l-2 1h-22l-1-1z" fill="#FDFDFD"/>
<path transform="translate(1382,1146)" d="m0 0 14 1 8 5 4 5 3 8 1 17 5 4v11l-4 4-6 1-7-2-4-7-2-7-3 6-8 7-5 2h-14l-7-5-2-4v-9l3-5 9-5 1-2-7-1-2-2v-7l5-8 9-5zm1 16-7 2-4 5-1 3h22l1-3-3-5-5-2zm-14 10m12 3-7 2-2 3 1 4 4 2 10-1 6-4v-5l-1-1z" fill="#F9FAFD"/>
<path transform="translate(1507,1146)" d="m0 0 13 1 8 4 5 6 2 4 1 6v16l5 2 1 1v11l-3 3-7 2-7-2-3-4-2-9-6 8-8 5-4 1h-12l-7-4-3-5v-9l4-6 4-2h3v-2l2-1-8-3-1-1v-7l6-9 7-4zm0 16-6 2-5 6-2 2h25l-1-6-4-3zm0 13-8 2-2 3 1 4 4 2 10-1 6-5 1-4-1-1z" fill="#F8FAFD"/>
<path transform="translate(1826,954)" d="m0 0h21l1 1v92h-22z" fill="#F9FAFD"/>
<path transform="translate(1193,1146)" d="m0 0 9 1 6 4 4 5 2 6 1 20-1 17-5 1-12-1-1-28-3-6-7-1-7 3-3 4-1 4-1 24-5 1-12-1v-51h17v16l5-10 6-6z" fill="#FAFBFD"/>
<path transform="translate(1419,1148)" d="m0 0h17l4 10 8 25 2-3 6-19 5-13h16l1 2-20 50-6 11-8 7-3 1h-8l-6-3-5-6 1-5 4-4 5 1 4 2 5-1 2-2 1-4-6-2-3-5-11-27-5-13z" fill="#FAFBFD"/>
<path transform="translate(1122,1146)" d="m0 0 13 1 8 4 6 7 2 5v10l-4 2h-34l3 7 9 3 8-2 5-4 6 2 6 3-1 5-7 8-10 4h-15l-10-4-6-7-4-10v-13l4-9 4-5 9-5zm1 15-7 3-3 5v2l4 1 18-1v-5l-5-4z" fill="#FAFBFD"/>
<path transform="translate(1793,981)" d="m0 0h22v66l-10 1h-10l-2-1z" fill="#FDFDFD"/>
<path transform="translate(295,1210)" d="m0 0h23l19 1 17 2h29l33 1h54l6-1 1-3h8l1 5-2 5h-188l-2-4v-5z" fill="#FEFEFE"/>
<path transform="translate(1332,1127)" d="m0 0h16l1 1v71l-6 1h-10l-1-1z" fill="#FBFBFD"/>
<path transform="translate(403,1103)" d="m0 0 8 1 1 1v6l-1 6-1 8-3-2-4 10-8 16-5 12-9 17-4 6-5 2-3 1-4-3 1-4 9-20 3-7 4-9 2-6h2l3-9 7-15 6-10z" fill="#A2B9F5"/>
<path transform="translate(363,1115)" d="m0 0h4l3 5-1 5-10 8-8 7-5 1 2 5 19 14 2 2-1 8-2 3-5-1-14-10-10-8-5-1-3-3-1-9 7-7 11-8 8-6 7-4z" fill="#A2B9F5"/>
<path transform="translate(414,1115)" d="m0 0 5 1 9 6 20 15 5 6-2 5-28 21-5 3h-5l-3-6 2-5 9-8 13-9-1-3-7-4-10-7-5-3v-7z" fill="#A2B9F5"/>
<path transform="translate(344,1063)" d="m0 0h3l1 7h-2v2l-8-2-2 3h-2l-1 5 3 1-29 1-8 4-3 5-1 4-1 30-3 1-1-2v-26l2-10 6-9 10-5 20-6z" fill="#FEFEFE"/>
<path transform="translate(1801,952)" d="m0 0 9 1 6 4 1 3v7l-3 6-7 3h-7l-6-3-3-5v-7l3-6z" fill="#F9FAFD"/>
<path transform="translate(449,1066)" d="m0 0 16 4 16 7 5 5 2 6v6l-3 2-2-9-4-5-6-2-22-1-5-7 3-4z" fill="#FDFDFD"/>
<path transform="translate(427,1100)" d="m0 0 13 2 4 1h16l1 5-5 1-10-1-4 1-6-1-9-1-4-2 1-4z" fill="#A2B9F5"/>
<path transform="translate(438,911)" d="m0 0 4 1 7 8 3 5v2l4 2 1 4-3-1-1 3-6-2-3-4-5-14z" fill="#A2B9F5"/>
<path transform="translate(434,1063)" d="m0 0 6 1 2 4-1 4-6 5v2h-10v-4l3-3z" fill="#FEFEFE"/>
<path transform="translate(360,1057)" d="m0 0 4 1 14 10-5 5-4 1-4-6-6-8z" fill="#FEFEFE"/>
<path transform="translate(417,1058)" d="m0 0h4l-1 5-6 7-3 4-5-2-3-2 1-3z" fill="#FEFEFE"/>
<path transform="translate(349,1101)" d="m0 0 8 1 3 1v2l-12 4-5 1-6-4 4-2z" fill="#A2B9F5"/>
<path transform="translate(378,1101)" d="m0 0 12 1-1 4-3 3-7-1-2-3z" fill="#A2B9F5"/>
<path transform="translate(328,1171)" d="m0 0 5 1 4 3-1 3-8-3z" fill="#FEFEFE"/>
<path transform="translate(411,1138)" d="m0 0 4 1 2 3-2 2-5-1z" fill="#A2B9F5"/>
</svg>
