<?xml version="1.0" encoding="UTF-8"?>
<svg version="1.1" viewBox="0 0 816 816" width="1280" height="1280" xmlns="http://www.w3.org/2000/svg">
<path transform="translate(377)" d="m0 0h15v83l-6 2-32 4-24 5-27 8-21 8-29 14-17 10-19 13-14 11-14 12-23 23-11 14-8 10-14 21-12 21-12 26-9 25-5 17-6 29-3 25-1 13v29l3 30 4 23 7 27 8 23 12 27 12 22 14 21 10 13 9 11 14 15 11 11 11 9 13 11 24 16 21 12 25 12 18 7 31 9 26 5 26 3h49l25-3 29-6 24-7 26-10 23-11 22-13 16-11 13-10 13-11 15-14 14-15 8-10 10-13 13-20 12-22 9-19 9-24 7-24 6-29 3-27v-45l-3-27-5-28v-17l4-12 6-9 5-6 9-6 7-3 5-1h14l10 3 8 5 7 7 6 13 6 27 5 31 2 15v59l-5 36-8 38-7 24-7 20-13 30-13 25-13 21-11 16-13 17-13 15-9 10-21 21-11 9-14 12-18 13-22 14-18 10-16 8-17 8-24 9-25 8-30 7-35 6-16 2h-57l-47-7-28-6-30-9-26-10-24-11-19-10-21-13-16-11-17-13-14-12-12-11-21-21-9-11-8-9-14-19-10-15-12-20-14-27-7-16-11-29-8-28-6-28-5-33-1-8v-64l7-45 8-34 11-33 11-26 8-16 9-17 11-18 16-23 18-22 10-11 7-8 11-11 8-7 10-9 14-11 18-13 20-13 23-13 23-11 25-10 31-10 35-8 35-5z" fill="#913388"/>
<path transform="translate(758,277)" d="m0 0h14l10 3 8 5 7 7 6 13 6 27 5 31 2 15v59l-5 36-8 38-7 24-7 20-13 30-13 25-13 21-11 16-13 17-13 15-9 10-21 21-11 9-14 12-18 13-22 14-18 10-16 8-17 8-24 9-25 8-30 7-35 6-16 2h-41l-11-2-12-1-2-3v-5l3-5-3-4-1-8h2l-1-14v-20l4-2 2-4 11-2 7-3 15-3v-3l-22-4-14-1-3-2h62l25-3 29-6 24-7 26-10 23-11 22-13 16-11 13-10 13-11 15-14 14-15 8-10 10-13 13-20 12-22 9-19 9-24 7-24 6-29 3-27v-45l-3-27-5-28v-17l4-12 6-9 5-6 9-6 7-3z" fill="#5A2CA9"/>
<path transform="translate(532,706)" d="m0 0 2 1-2 2 5 1 5-2 4 4-2 1v3l1 2h9v2l-6 1-2 12-5 9-2 4-2 3v3l4 4 6-3 3 1v2l-3 1-2 5-3 1-2 5-5 3-1 2-8 4h-2v3l-6 3 1 2 5-2 8-3h5l2 1 4-1v-2l14-5 5-6h2v-2l6-3 3-2 7-1v-2l4-2h5l1-3 7-1h2l3-2 3 1 4 4-6 5-11 6-9 6-9 4h-2l-1 2-2 2-7 1-3 3-3-1-3 5 1 2-20 7-23 7-33 7-33 5-8 1h-41l-11-2-12-1-2-3v-5l3-5-3-4-1-8h2l-1-14v-20l4-2 2-4 11-2 7-3 15-3v-3l-22-4-14-1-3-2h62l25-3 29-6 24-7z" fill="#70309A"/>
<path transform="translate(391,359)" d="m0 0 14 1 10 4 8 6 7 8 6 13 2 9v22l-4 13-5 9-9 10-12 6-11 2-13-1-12-5-9-8-7-11-4-12-1-5v-19l3-12 6-12 8-9 10-6 6-2zm0 25-7 4-4 6-2 7v19l4 10 4 5 5 2h7l7-4 4-6 2-7v-20l-4-10-6-5-2-1z" fill="#FEFEFE"/>
<path transform="translate(263,356)" d="m0 0h74l1 4v7l-7 11-8 11-9 16-8 18-5 19-3 20-1 1h-17l-3-1 1-15 3-15 7-21 7-15 7-12 8-11-2 1h-45l-1-17z" fill="#FEFEFE"/>
<path transform="translate(530,361)" d="m0 0h22l-6 8-10 14-15 20-28 38-12 16-3 3h-20v-3l13-17 13-18 12-16 10-13 10-14 13-17z" fill="#FEFEFE"/>
<path transform="translate(529,413)" d="m0 0h13l9 4 5 5 4 6 1 4v10l-4 8-5 6-8 4-5 1h-8l-9-3-6-5-5-9-1-4v-7l4-10 7-7zm4 15-5 4-1 6 3 6 2 1h7l5-5v-6l-4-5z" fill="#FEFEFE"/>
<path transform="translate(467,360)" d="m0 0h11l8 3 7 6 4 8 1 3v9l-4 8-4 5-8 5-4 1h-11l-8-3-8-7-4-11 1-10 4-8 7-6zm3 15-5 5-1 7 5 5 4 1 6-3 2-3-1-8-3-3z" fill="#FEFEFE"/>
<path transform="translate(546,787)" d="m0 0 6 1v2l-6 2-6-1 1-2z" fill="#602CA6"/>
</svg>
